<?xml version="1.0" standalone="no"?><!DOCTYPE svg PUBLIC "-//W3C//DTD SVG 1.1//EN" "http://www.w3.org/Graphics/SVG/1.1/DTD/svg11.dtd"><svg t="1565703028674" class="icon" viewBox="0 0 1024 1024" version="1.1" xmlns="http://www.w3.org/2000/svg" p-id="7132" width="20" height="20" xmlns:xlink="http://www.w3.org/1999/xlink"><defs><style type="text/css"></style></defs><path d="M834.4576 359.424a299.3152 299.3152 0 0 0-82.176-143.4624A309.248 309.248 0 0 0 654.336 151.552a313.6 313.6 0 0 0-119.7568-23.6032c-41.3184 0-81.664 7.936-119.6544 23.552A307.2 307.2 0 0 0 316.928 216.0128a298.752 298.752 0 0 0-82.5856 144.64 157.4912 157.4912 0 0 0-75.8784 55.7056 159.9488 159.9488 0 0 0-31.744 96.1536c0 42.496 16.6912 82.688 46.9504 112.9984 22.2208 22.2208 49.8176 37.3248 79.616 43.52a32.256 32.256 0 0 0 29.7984-8.96c6.144-6.144 9.4208-14.336 9.3184-23.04l-1.3312-207.616c0-62.976 25.1904-122.2656 70.912-166.912a245.5552 245.5552 0 0 1 172.4416-69.5296c65.1264 0 126.3616 24.6784 172.4416 69.4784a231.68 231.68 0 0 1 70.9632 166.912v216.4736c0 62.976-25.2416 122.2144-70.9632 166.8608-19.3536 18.944-41.4208 34.304-65.6384 45.7216a105.984 105.984 0 0 0-29.5424-92.6208 105.7792 105.7792 0 0 0-72.3968-31.3856h-2.7648c-28.3136 0-55.04 11.0592-75.1104 31.232a105.6256 105.6256 0 0 0-31.232 75.1104c0 28.0064 10.8032 54.4768 30.5664 74.5472 19.6608 19.968 45.824 31.232 73.7792 31.7952H539.3408a310.4768 310.4768 0 0 0 212.992-87.9616c28.3648-27.648 50.688-59.8016 66.2528-95.744a296.3968 296.3968 0 0 0 23.9616-101.1712 157.7984 157.7984 0 0 0 56.6784-36.864 158.72 158.72 0 0 0 46.8992-112.9472c-0.1024-70.5536-45.7216-132.8128-111.616-152.9344zM143.0016 563.712c1.536 2.304 3.328 4.6592 5.12 6.9632-1.792-2.304-3.584-4.608-5.12-6.9632z m9.0112 20.2752z m62.6176 0.768z m11.6224 0.7168a94.4128 94.4128 0 0 1-34.56-73.0624c0-16.896 4.4032-33.536 12.6464-48.128 5.632-10.0352 13.1584-18.8928 21.9136-26.112v147.3024z m9.8816 17.7152c-1.6384-1.6896-3.4816-3.3792-5.12-5.12a43.4688 43.4688 0 0 0 5.12 5.12z m4.4032-236.9536z m14.336 297.8304a91.4944 91.4944 0 0 1-9.1136-4.5056c3.0208 1.536 6.0416 3.1744 9.1136 4.5056l1.3824 0.6144-1.3824-0.6144z m7.3216-1.792h-2.56 4.608-2.048z m26.4704-23.9616v-1.3824l-4.864-207.616 4.864 207.616a1.0752 1.0752 0 0 1 0 1.3824zM349.184 197.6832z m68.4544-39.3216l4.1984-1.6384a33.4336 33.4336 0 0 0-4.1984 1.6384z m54.272 38.2976c2.4064-1.6896 4.8128-3.6864 7.168-5.12-2.2528 1.6896-4.7616 3.4304-7.168 5.12z m275.2512 24.5248a299.52 299.52 0 0 0-95.6416-62.8224l-4.1984-1.6384 4.1984 1.6384a300.4928 300.4928 0 0 1 95.6416 62.8224z m10.496 10.752z m9.8816 11.264zM437.504 843.264v-5.12 5.12z m99.0208-101.5808h5.12-5.12z m29.5936 128a41.1648 41.1648 0 0 1-28.16 12.544h-2.048a41.472 41.472 0 1 1 30.208-12.544z m18.5856-21.5552a11.264 11.264 0 0 0 3.072-7.3216c0-0.8192 0-1.6384-0.512-2.4576 0 0.8192 0.512 1.6384 0.512 2.4576a11.264 11.264 0 0 1-3.072 7.3216z m45.9776 25.2416l1.024-5.12-1.024 5.12 5.12-3.2768a60.1088 60.1088 0 0 1-5.12 3.2768z m116.48-19.456l-5.5808 5.2736 5.632-5.3248z m39.3216-208.128V429.2608c0-1.7408 0-3.584-0.512-5.2736 0 1.6896 0.512 3.584 0.512 5.2736v216.5248z m25.2416 114.688c0.6144-1.5872 1.3824-3.1232 2.048-4.7104a102.4 102.4 0 0 1-2.048 4.6592z m0-445.8496z m20.3776 50.5344l-5.12-5.5808 5.12 5.632z m3.3792 56.832z m22.8864 162.7136c0.4096-0.4608 0.8192-0.9216 1.28-1.28-0.512 0.3584-0.8704 0.8192-1.28 1.28z m-5.2224-5.2224c-3.328 3.2768-6.656 6.2464-10.3424 8.96V435.3024c9.7792 7.3216 18.176 16.5376 24.576 27.3408 8.96 15.0016 13.6192 32.2048 13.6192 49.8176 0.1024 25.2416-9.8304 48.9984-27.8528 67.072z m82.3808-111.36c-1.7408-2.048-3.1744-3.9936-5.12-5.9392l5.12 5.9392z m-12.1856-23.1424c1.8432 1.8432 3.4816 3.7888 5.12 5.632-1.6384-1.9456-3.4816-3.7888-5.12-5.632z m6.7584 117.76c1.8944-1.9968 3.5328-4.096 5.12-6.144-1.3824 2.1504-3.2256 4.1472-5.12 6.144z" p-id="7133" fill="#2c2e36"></path></svg>