<svg width="238" height="180" xmlns="http://www.w3.org/2000/svg" xmlns:xlink="http://www.w3.org/1999/xlink"><defs><linearGradient x1="50%" y1="0%" x2="50%" y2="100%" id="c"><stop stop-color="#FFBB58" offset="0%"/><stop stop-color="#FFF" stop-opacity="0" offset="100%"/></linearGradient><linearGradient x1="50%" y1="0%" x2="50%" y2="100%" id="d"><stop stop-color="#FFBB58" offset="0%"/><stop stop-color="#FFF" stop-opacity="0" offset="100%"/></linearGradient><linearGradient x1="71.584%" y1="49.305%" x2="100%" y2="50%" id="e"><stop stop-color="#FFD290" offset="0%"/><stop stop-color="#FFF" stop-opacity="0" offset="100%"/></linearGradient><linearGradient x1="39.893%" y1="40.539%" x2="84.805%" y2="59.545%" id="f"><stop stop-color="#FFDFB1" offset="0%"/><stop stop-color="#FA9A0F" offset="100%"/></linearGradient><linearGradient x1="43.934%" y1="50%" x2="85.459%" y2="123.989%" id="g"><stop stop-color="#FFDFB1" offset="0%"/><stop stop-color="#FA9A0F" offset="100%"/></linearGradient><path id="a" d="M0 0h300v200H0z"/></defs><g transform="translate(-31 -10)" fill="none" fill-rule="evenodd"><mask id="b" fill="#fff"><use xlink:href="#a"/></mask><g mask="url(#b)"><g transform="translate(31 10)"><path d="M131.15 155.044L115 145" fill="#D8D8D8"/><ellipse fill="#FFF4E4" cx="119" cy="133.5" rx="119" ry="46.5"/><path d="M4.065 48.02a8 8 0 0114.5-5.593A6.178 6.178 0 0122.5 41c3.59 0 6.5 3.134 6.5 7 0 .085-.001.17-.004.255A4.502 4.502 0 0127.5 57h-23a4.5 4.5 0 01-.435-8.98z" fill="url(#c)"/><path d="M162.019 7a6.5 6.5 0 0112.018-3.907 5.002 5.002 0 015.868 3.93A3.5 3.5 0 01179.5 14h-18a3.5 3.5 0 110-7h.519z" fill="url(#d)"/><path fill="url(#e)" transform="rotate(-4 145.977 139.92)" d="M220.455 161.251l15.773-33.382-59.665-9.28-120.838 22.117z"/><path d="M9.8 126.333v7.267H8.2v-7.205c-.98.022-1.895.005-2.568.005-2.558 0-4.632-2.149-4.632-4.8 0-1.324.517-2.523 1.354-3.392a3.447 3.447 0 01-.512-1.808c0-1.853 1.474-3.38 3.37-3.578.046-1.985 1.707-4.822 3.367-4.822s3.32 2.837 3.367 4.822c1.896.198 3.37 1.725 3.37 3.578 0 .457-.09.894-.253 1.296A4.849 4.849 0 0117 121.6c0 2.651-2.074 4.8-4.632 4.8-.737 0-1.682.028-2.568-.067z" fill="#FFD699"/><path d="M194 161.916V171h-2v-9.007c-1.226.029-2.368.007-3.21.007-3.198 0-5.79-2.686-5.79-6 0-1.655.647-3.154 1.693-4.24a4.31 4.31 0 01-.64-2.26c0-2.317 1.842-4.224 4.211-4.473.059-2.481 2.134-6.027 4.21-6.027 2.075 0 4.15 3.546 4.209 6.027 2.369.249 4.212 2.156 4.212 4.473 0 .57-.112 1.117-.316 1.62 1.466 1.088 2.421 2.868 2.421 4.88 0 3.314-2.592 6-5.79 6-.92 0-2.102.035-3.21-.084z" fill="#FFC979"/><path d="M197.15 98.896v5.904h-1.3v-5.854c-.797.018-1.54.004-2.087.004-2.078 0-3.763-1.746-3.763-3.9 0-1.076.42-2.05 1.1-2.756a2.801 2.801 0 01-.416-1.469c0-1.506 1.198-2.746 2.738-2.907.038-1.613 1.387-3.918 2.736-3.918 1.349 0 2.698 2.305 2.736 3.918 1.54.161 2.738 1.401 2.738 2.907 0 .371-.073.726-.206 1.053A3.94 3.94 0 01203 95.05c0 2.154-1.685 3.9-3.763 3.9-.6 0-1.367.023-2.087-.054z" fill="#FFD597" opacity=".675"/><path fill="#FFF" fill-rule="nonzero" d="M38.385 7.325V9.23h3.697v.913h-3.697v1.913h3.697V14h1.844v-1.944h3.689v-1.913h-3.69V9.23h3.69V7.325h-3.462L48 3.35 46.692 2l-3.688 3.818L39.308 2 38 3.35l3.847 3.975z"/><g fill-rule="nonzero"><path d="M109.98 49H97.184C88.44 67.17 68 89.348 68 89.348S47.559 67.17 38.816 49H26.02c-3.19 0-6.04 1.964-7.096 4.92L.426 105.409C-1.264 110.08 2.284 115 7.352 115h121.296c5.068 0 8.616-4.899 6.926-9.591l-18.52-51.51C116.02 50.964 113.17 49 109.98 49z" fill="url(#f)" transform="translate(51 35)"/><path d="M68 0C50.874 0 37 13.628 37 30.45S68 81 68 81s31-33.748 31-50.55C99 13.628 85.126 0 68 0zm0 40.51c-6.779 0-12.27-5.393-12.27-12.051S61.222 16.407 68 16.407s12.27 5.394 12.27 12.052c0 6.658-5.491 12.051-12.27 12.051z" fill="url(#g)" transform="translate(51 35)"/></g><path d="M49.9 27.937l5.556-1.799a2.855 2.855 0 011.755 0l6.578 2.13c.57.184 1.186.184 1.755 0l5.628-1.822a1.422 1.422 0 011.25.185c.363.254.578.66.578 1.094v17.776c0 1.162-.765 2.194-1.9 2.562l-5.556 1.799a2.855 2.855 0 01-1.755 0l-6.578-2.13a2.855 2.855 0 00-1.755 0l-5.628 1.822a1.422 1.422 0 01-1.25-.185A1.338 1.338 0 0148 48.275V30.499c0-1.162.765-2.194 1.9-2.562z" fill="#FFBB58" fill-rule="nonzero"/><path d="M64 49V30.2a4.33 4.33 0 01-.629-.151L57 28v18.8c.213.034.423.084.629.15L64 49zM65 49l5.088-1.737c.545-.185.912-.707.912-1.295V28l-5.401 1.842a3.925 3.925 0 01-.599.153V49zM56 46.005V27l-5.088 1.738A1.362 1.362 0 0050 30.032V48l5.401-1.842c.196-.066.396-.118.599-.153z" fill="#FFBB58" fill-rule="nonzero"/><path d="M55.5 27v20M64.5 29v20" stroke="#FFEDD3" stroke-linecap="round"/></g></g></g></svg>