<svg width="258" height="180" xmlns="http://www.w3.org/2000/svg"><defs><linearGradient x1="50%" y1="0%" x2="50%" y2="100%" id="a"><stop stop-color="#FFBB58" offset="0%"/><stop stop-color="#FFF" stop-opacity="0" offset="100%"/></linearGradient><linearGradient x1="50%" y1="0%" x2="50%" y2="100%" id="b"><stop stop-color="#FFBB58" offset="0%"/><stop stop-color="#FFF" stop-opacity="0" offset="100%"/></linearGradient><linearGradient x1="8.833%" y1="50%" x2="111.568%" y2="50.44%" id="c"><stop stop-color="#FFD596" offset="0%"/><stop stop-color="#FFF" stop-opacity="0" offset="100%"/></linearGradient><linearGradient x1="85.595%" y1="57.266%" x2="16.767%" y2="38.997%" id="d"><stop stop-color="#FA9A0F" offset="0%"/><stop stop-color="#FFDFB1" offset="100%"/></linearGradient></defs><g fill="none" fill-rule="evenodd"><path d="M151.15 155.044L135 145" fill="#D8D8D8"/><ellipse fill="#FFF4E4" cx="139" cy="133.5" rx="119" ry="46.5"/><path d="M4.065 47.02a8 8 0 0114.5-5.593A6.178 6.178 0 0122.5 40c3.59 0 6.5 3.134 6.5 7 0 .085-.001.17-.004.255A4.502 4.502 0 0127.5 56h-23a4.5 4.5 0 01-.435-8.98z" fill="url(#a)"/><path d="M182.019 7a6.5 6.5 0 0112.018-3.907 5.002 5.002 0 015.868 3.93A3.5 3.5 0 01199.5 14h-18a3.5 3.5 0 110-7h.519z" fill="url(#b)"/><path d="M156.964 140.216c43.833 3.55 86.38 2.147 87.03-7.36.65-9.506-50.49-18.205-79.159-20.592-28.668-2.387-67.084-2.289-67.812 8.356-.729 10.645 16.109 16.046 59.941 19.596z" fill="url(#c)" transform="rotate(-5 170.5 126.5)"/><path d="M29.8 126.333v7.267h-1.6v-7.205c-.98.022-1.895.005-2.568.005-2.558 0-4.632-2.149-4.632-4.8 0-1.324.517-2.523 1.354-3.392a3.447 3.447 0 01-.512-1.808c0-1.853 1.474-3.38 3.37-3.578.046-1.985 1.707-4.822 3.367-4.822s3.32 2.837 3.367 4.822c1.896.198 3.37 1.725 3.37 3.578 0 .457-.09.894-.253 1.296A4.849 4.849 0 0137 121.6c0 2.651-2.074 4.8-4.632 4.8-.737 0-1.682.028-2.568-.067z" fill="#FFD699"/><path d="M214 161.916V171h-2v-9.007c-1.226.029-2.368.007-3.21.007-3.198 0-5.79-2.686-5.79-6 0-1.655.647-3.154 1.693-4.24a4.31 4.31 0 01-.64-2.26c0-2.317 1.842-4.224 4.211-4.473.059-2.481 2.134-6.027 4.21-6.027 2.075 0 4.15 3.546 4.209 6.027 2.369.249 4.212 2.156 4.212 4.473 0 .57-.112 1.117-.316 1.62 1.466 1.088 2.421 2.868 2.421 4.88 0 3.314-2.592 6-5.79 6-.92 0-2.102.035-3.21-.084z" fill="#FFC979"/><path d="M217.15 98.896v5.904h-1.3v-5.854c-.797.018-1.54.004-2.087.004-2.078 0-3.763-1.746-3.763-3.9 0-1.076.42-2.05 1.1-2.756a2.801 2.801 0 01-.416-1.469c0-1.506 1.198-2.746 2.738-2.907.038-1.613 1.387-3.918 2.736-3.918 1.349 0 2.698 2.305 2.736 3.918 1.54.161 2.738 1.401 2.738 2.907 0 .371-.073.726-.206 1.053A3.94 3.94 0 01223 95.05c0 2.154-1.685 3.9-3.763 3.9-.6 0-1.367.023-2.087-.054z" fill="#FFD597" opacity=".675"/><path d="M35.565 80.117c1.36 0 2.65.248 3.868.744a9.605 9.605 0 013.17 2.074 10.217 10.217 0 012.149 3.136 9.295 9.295 0 01.805 3.828 9.295 9.295 0 01-.805 3.828 10.217 10.217 0 01-2.15 3.136 10.334 10.334 0 01-3.17 2.127 9.563 9.563 0 01-3.867.797c-1.433 0-2.758-.265-3.976-.797a10.334 10.334 0 01-3.17-2.127 10.217 10.217 0 01-2.148-3.136 9.295 9.295 0 01-.806-3.828c0-1.347.268-2.623.806-3.828a10.217 10.217 0 012.149-3.136 9.605 9.605 0 013.17-2.074c1.217-.496 2.542-.744 3.975-.744zm44.698.213c1.36 0 2.668.248 3.921.744 1.254.496 2.328 1.187 3.224 2.073a10.217 10.217 0 012.149 3.137 9.295 9.295 0 01.806 3.828 9.295 9.295 0 01-.806 3.827 10.217 10.217 0 01-2.15 3.137c-.895.886-1.969 1.595-3.223 2.127a9.945 9.945 0 01-3.921.797 9.563 9.563 0 01-3.868-.797 10.334 10.334 0 01-3.17-2.127 10.217 10.217 0 01-2.149-3.137 9.295 9.295 0 01-.806-3.827c0-1.347.269-2.623.806-3.828a10.217 10.217 0 012.149-3.137 9.605 9.605 0 013.17-2.073 10.152 10.152 0 013.868-.744zm18.05-60.393c2.006 0 3.564.266 4.675.798 1.11.531 1.898 1.187 2.363 1.967.466.78.681 1.612.645 2.498-.036.886-.161 1.648-.376 2.286-.215.638-.68 1.95-1.397 3.934a560.402 560.402 0 00-2.31 6.54c-.824 2.374-1.647 4.73-2.471 7.07a348.778 348.778 0 01-1.988 5.529c-.931 2.835-2.095 4.802-3.492 5.9-1.397 1.1-3.134 1.649-5.211 1.649h-56.41l1.505 9.57h54.26c3.439 0 5.158 1.452 5.158 4.358 0 1.418-.34 2.64-1.021 3.669-.68 1.027-2.024 1.541-4.03 1.541H31.913c-1.433 0-2.633-.319-3.6-.957a8.108 8.108 0 01-2.417-2.498 15.112 15.112 0 01-1.558-3.35 30.352 30.352 0 01-.914-3.402c-.071-.425-.268-1.453-.59-3.083-.323-1.63-.717-3.668-1.182-6.114l-1.558-8.187c-.574-3.013-1.147-6.043-1.72-9.09a4642.654 4642.654 0 00-4.62-23.924H5.695c-1.075 0-1.97-.266-2.686-.797a6.969 6.969 0 01-1.773-1.914 7.322 7.322 0 01-.967-2.393C.089 10.687 0 9.907 0 9.198 0 7.781.484 6.611 1.45 5.69c.968-.922 2.275-1.383 3.922-1.383h10.852c1.433 0 2.58.213 3.439.638.86.426 1.54.957 2.041 1.595.502.638.86 1.311 1.075 2.02.215.71.394 1.312.537 1.808.143.567.286 1.364.43 2.392.143 1.028.286 2.073.43 3.137.214 1.276.43 2.622.644 4.04h73.494zm-8.058-3.402H50.93L65.113 2.5C66.76.87 68.569.037 70.539 0c1.97-.035 3.778.762 5.426 2.392l14.29 14.142z" transform="translate(71 36)" fill="url(#d)" fill-rule="nonzero"/><path d="M56.92 16.153a1.041 1.041 0 00-1.035-.922h-5.192v-1.039A5.2 5.2 0 0045.5 9a5.2 5.2 0 00-5.193 5.192v1.039h-5.19c-.53 0-.974.396-1.032.922l-2.078 18.692A1.042 1.042 0 0033.038 36h24.924c.295 0 .576-.127.774-.345.195-.22.29-.515.257-.81L56.92 16.153zm-15.577 5.309a1.04 1.04 0 01-1.04-1.039 1.04 1.04 0 012.08 0c0 .573-.463 1.039-1.04 1.039zm7.273-6.231h-6.23v-1.039a3.12 3.12 0 013.114-3.115 3.12 3.12 0 013.116 3.115v1.039zm1.049 6.23a1.04 1.04 0 01-1.04-1.038 1.04 1.04 0 012.08 0c0 .573-.464 1.039-1.04 1.039z" fill="#FFBB58" fill-rule="nonzero"/></g></svg>