<svg width="238" height="187" xmlns="http://www.w3.org/2000/svg"><defs><linearGradient x1="50%" y1="0%" x2="50%" y2="100%" id="a"><stop stop-color="#FFBB58" offset="0%"/><stop stop-color="#FFF" stop-opacity="0" offset="100%"/></linearGradient><linearGradient x1="50%" y1="0%" x2="50%" y2="100%" id="b"><stop stop-color="#FFBB58" offset="0%"/><stop stop-color="#FFF" stop-opacity="0" offset="100%"/></linearGradient><linearGradient x1="52.022%" y1="58.1%" x2="114.346%" y2="58.1%" id="c"><stop stop-color="#FFD290" offset="0%"/><stop stop-color="#FFF" stop-opacity="0" offset="100%"/></linearGradient><linearGradient x1="42.71%" y1="25.366%" x2="96.885%" y2="79.1%" id="d"><stop stop-color="#FFDFB1" offset="0%"/><stop stop-color="#FA9A0F" offset="100%"/></linearGradient></defs><g fill="none" fill-rule="evenodd"><path d="M-30-7h300v200H-30z"/><g><path d="M131.15 162.044L115 152" fill="#D8D8D8"/><ellipse fill="#FFF4E4" cx="119" cy="140.5" rx="119" ry="46.5"/><path d="M4.065 55.02a8 8 0 0114.5-5.593A6.178 6.178 0 0122.5 48c3.59 0 6.5 3.134 6.5 7 0 .085-.001.17-.004.255A4.502 4.502 0 0127.5 64h-23a4.5 4.5 0 01-.435-8.98z" fill="url(#a)"/><path d="M162.019 14a6.5 6.5 0 0112.018-3.907 5.002 5.002 0 015.868 3.93A3.5 3.5 0 01179.5 21h-18a3.5 3.5 0 110-7h.519z" fill="url(#b)"/><path d="M162.353 172.663c64.934 4.541 75.39-12.943 75.39-20.256 0-7.313-36.324-34.779-88.79-34.779-52.468 0-94.415 10.609-94.415 17.922 0 7.313 42.882 32.573 107.815 37.113z" fill="url(#c)" transform="rotate(-4 146.14 145.517)"/><path d="M9.8 133.333v7.267H8.2v-7.205c-.98.022-1.895.005-2.568.005-2.558 0-4.632-2.149-4.632-4.8 0-1.324.517-2.523 1.354-3.392a3.447 3.447 0 01-.512-1.808c0-1.853 1.474-3.38 3.37-3.578.046-1.985 1.707-4.822 3.367-4.822s3.32 2.837 3.367 4.822c1.896.198 3.37 1.725 3.37 3.578 0 .457-.09.894-.253 1.296A4.849 4.849 0 0117 128.6c0 2.651-2.074 4.8-4.632 4.8-.737 0-1.682.028-2.568-.067z" fill="#FFD699"/><path d="M194 168.916V178h-2v-9.007c-1.226.029-2.368.007-3.21.007-3.198 0-5.79-2.686-5.79-6 0-1.655.647-3.154 1.693-4.24a4.31 4.31 0 01-.64-2.26c0-2.317 1.842-4.224 4.211-4.473.059-2.481 2.134-6.027 4.21-6.027 2.075 0 4.15 3.546 4.209 6.027 2.369.249 4.212 2.156 4.212 4.473 0 .57-.112 1.117-.316 1.62 1.466 1.088 2.421 2.868 2.421 4.88 0 3.314-2.592 6-5.79 6-.92 0-2.102.035-3.21-.084z" fill="#FFC979"/><path d="M197.15 105.896v5.904h-1.3v-5.854c-.797.018-1.54.004-2.087.004-2.078 0-3.763-1.746-3.763-3.9 0-1.076.42-2.05 1.1-2.756a2.801 2.801 0 01-.416-1.469c0-1.506 1.198-2.746 2.738-2.907.038-1.613 1.387-3.918 2.736-3.918 1.349 0 2.698 2.305 2.736 3.918 1.54.161 2.738 1.401 2.738 2.907 0 .371-.073.726-.206 1.053A3.94 3.94 0 01203 102.05c0 2.154-1.685 3.9-3.763 3.9-.6 0-1.367.023-2.087-.054z" fill="#FFD597" opacity=".675"/><path d="M48.4 24.22l-5.49-5.491a11.931 11.931 0 002.074-6.741C44.984 5.367 39.616 0 32.996 0 26.376 0 21.01 5.367 21.01 11.988c0 6.62 5.367 11.987 11.987 11.987 2.32 0 4.486-.661 6.321-1.803l.053.06 5.51 5.509c.819.82 2.27.695 3.243-.277.973-.973 1.097-2.425.278-3.244zM23.408 11.988c0-5.289 4.302-9.59 9.59-9.59 5.287 0 9.59 4.301 9.59 9.59 0 5.288-4.303 9.59-9.59 9.59-5.288 0-9.59-4.302-9.59-9.59z" fill="#FCB44D" fill-rule="nonzero"/><g transform="translate(53 42)"><rect fill="url(#d)" fill-rule="nonzero" width="132" height="110" rx="16"/><path d="M44.923 55H20.58c-1.987 0-3.478-1.48-3.478-3.314 0-1.833 1.562-3.314 3.478-3.314h24.342c1.987 0 3.477 1.48 3.477 3.314 0 1.833-1.632 3.314-3.477 3.314zM20.084 32.718c-1.632 0-3.052-1.48-3.052-3.314 0-1.833 1.349-3.314 3.052-3.314h38.89c1.632 0 3.052 1.48 3.052 3.314 0 1.833-1.42 3.314-3.123 3.314h-38.82z" fill="#FFF"/></g><path d="M178.64 139.358l-16.39-16.476a31.487 31.487 0 007.658-20.613C169.98 85.022 156.095 71 138.99 71 121.885 71 108 85.022 108 102.27c0 17.247 13.813 31.269 30.99 31.269 6.083 0 11.809-1.823 16.676-4.908 0 0 .071.07.071.21l16.748 16.897c1.717 1.683 4.58 1.683 6.298 0 1.646-1.823 1.646-4.697-.143-6.38z" fill="#FFF" fill-rule="nonzero"/></g></g></svg>