<svg width="239" height="184" xmlns="http://www.w3.org/2000/svg"><defs><linearGradient x1="50%" y1="0%" x2="50%" y2="100%" id="a"><stop stop-color="#FFBB58" offset="0%"/><stop stop-color="#FFF" stop-opacity="0" offset="100%"/></linearGradient><linearGradient x1="50%" y1="0%" x2="50%" y2="100%" id="b"><stop stop-color="#FFBB58" offset="0%"/><stop stop-color="#FFF" stop-opacity="0" offset="100%"/></linearGradient><linearGradient x1="46.949%" y1="50%" x2="101.389%" y2="50%" id="c"><stop stop-color="#FFD290" offset="0%"/><stop stop-color="#FFF" stop-opacity="0" offset="100%"/></linearGradient><linearGradient x1="31.521%" y1="45.506%" x2="94.113%" y2="90.03%" id="d"><stop stop-color="#FFDFB1" offset="0%"/><stop stop-color="#FA9A0F" offset="100%"/></linearGradient></defs><g fill="none" fill-rule="evenodd"><path d="M-31-8h300v200H-31z"/><g><path d="M131.15 159.044L115 149" fill="#D8D8D8"/><path d="M58.799 0h-28.6C27.329 0 25 2.301 25 5.137V21.95c0 2.83 2.329 5.13 5.199 5.13h14.638s6.056 4.866 6.878 5.5c.821.63 1.153.488 1.142 0-.008-.49-.005-5.5-.005-5.5h5.947c2.875 0 5.201-2.3 5.201-5.13V5.137C64 2.301 61.674 0 58.799 0zM36.143 16.5c-1.537 0-2.786-1.227-2.786-2.75S34.606 11 36.143 11s2.786 1.227 2.786 2.75-1.249 2.75-2.786 2.75zm8.357 0c-1.537 0-2.786-1.227-2.786-2.75S42.963 11 44.5 11s2.786 1.227 2.786 2.75-1.249 2.75-2.786 2.75zm8.357 0c-1.537 0-2.785-1.227-2.785-2.75S51.32 11 52.857 11c1.537 0 2.786 1.227 2.786 2.75s-1.249 2.75-2.786 2.75z" fill="#FFBB58" fill-rule="nonzero"/><ellipse fill="#FFF4E4" cx="119" cy="137.5" rx="119" ry="46.5"/><path d="M4.065 52.02a8 8 0 0114.5-5.593A6.178 6.178 0 0122.5 45c3.59 0 6.5 3.134 6.5 7 0 .085-.001.17-.004.255A4.502 4.502 0 0127.5 61h-23a4.5 4.5 0 01-.435-8.98z" fill="url(#a)"/><path d="M162.019 11a6.5 6.5 0 0112.018-3.907 5.002 5.002 0 015.868 3.93A3.5 3.5 0 01179.5 18h-18a3.5 3.5 0 110-7h.519z" fill="url(#b)"/><ellipse fill="url(#c)" cx="144" cy="128.5" rx="95" ry="13.5"/><path d="M157.638 106.116c7.153 4.565 12.537 8.88 16.15 12.942 3.614 4.062 4.296 8.376 2.044 12.942H52.473c-3.095 0-4.584-2.936-4.467-8.809l19.632-17.075v-45.07c0-19.054 15.446-34.5 34.5-34.5h.618a8.804 8.804 0 01-.118-1.439c0-5.03 4.253-9.107 9.5-9.107s9.5 4.078 9.5 9.107c0 .49-.04.97-.118 1.438h1.618c19.054 0 34.5 15.447 34.5 34.5v45.07z" fill="url(#d)"/><path d="M9.8 130.333v7.267H8.2v-7.205c-.98.022-1.895.005-2.568.005-2.558 0-4.632-2.149-4.632-4.8 0-1.324.517-2.523 1.354-3.392a3.447 3.447 0 01-.512-1.808c0-1.853 1.474-3.38 3.37-3.578.046-1.985 1.707-4.822 3.367-4.822s3.32 2.837 3.367 4.822c1.896.198 3.37 1.725 3.37 3.578 0 .457-.09.894-.253 1.296A4.849 4.849 0 0117 125.6c0 2.651-2.074 4.8-4.632 4.8-.737 0-1.682.028-2.568-.067z" fill="#FFD699"/><path d="M194 165.916V175h-2v-9.007c-1.226.029-2.368.007-3.21.007-3.198 0-5.79-2.686-5.79-6 0-1.655.647-3.154 1.693-4.24a4.31 4.31 0 01-.64-2.26c0-2.317 1.842-4.224 4.211-4.473.059-2.481 2.134-6.027 4.21-6.027 2.075 0 4.15 3.546 4.209 6.027 2.369.249 4.212 2.156 4.212 4.473 0 .57-.112 1.117-.316 1.62 1.466 1.088 2.421 2.868 2.421 4.88 0 3.314-2.592 6-5.79 6-.92 0-2.102.035-3.21-.084z" fill="#FFC979"/><path d="M197.15 102.896v5.904h-1.3v-5.854c-.797.018-1.54.004-2.087.004-2.078 0-3.763-1.746-3.763-3.9 0-1.076.42-2.05 1.1-2.756a2.801 2.801 0 01-.416-1.469c0-1.506 1.198-2.746 2.738-2.907.038-1.613 1.387-3.918 2.736-3.918 1.349 0 2.698 2.305 2.736 3.918 1.54.161 2.738 1.401 2.738 2.907 0 .371-.073.726-.206 1.053A3.94 3.94 0 01203 99.05c0 2.154-1.685 3.9-3.763 3.9-.6 0-1.367.023-2.087-.054z" fill="#FFD597" opacity=".675"/></g></g></svg>