<svg width="257" height="184" xmlns="http://www.w3.org/2000/svg" xmlns:xlink="http://www.w3.org/1999/xlink"><defs><linearGradient x1="50%" y1="0%" x2="50%" y2="100%" id="c"><stop stop-color="#FFBB58" offset="0%"/><stop stop-color="#FFF" stop-opacity="0" offset="100%"/></linearGradient><linearGradient x1="50%" y1="0%" x2="50%" y2="100%" id="d"><stop stop-color="#FFBB58" offset="0%"/><stop stop-color="#FFF" stop-opacity="0" offset="100%"/></linearGradient><linearGradient x1="36.96%" y1="50%" x2="100%" y2="50%" id="e"><stop stop-color="#FFD290" offset="0%"/><stop stop-color="#FFF" stop-opacity="0" offset="100%"/></linearGradient><linearGradient x1="39.643%" y1="39.395%" x2="86.937%" y2="100%" id="f"><stop stop-color="#FFDFB1" offset="0%"/><stop stop-color="#FA9A0F" offset="100%"/></linearGradient><path id="a" d="M0 0h300v200H0z"/></defs><g transform="translate(-21 -8)" fill="none" fill-rule="evenodd"><mask id="b" fill="#fff"><use xlink:href="#a"/></mask><g mask="url(#b)"><g transform="translate(21 8)"><g fill-rule="nonzero"><path d="M39 0c-8.284 0-15 6.716-15 15 0 8.284 6.716 15 15 15 8.284 0 15-6.716 15-15 0-8.284-6.716-15-15-15z" fill="#FFBB58"/><path d="M46.949 11.322l-8.894 8.894a1.087 1.087 0 01-1.538 0l-5.466-5.466a1.087 1.087 0 011.538-1.538l4.697 4.697 8.125-8.125a1.087 1.087 0 011.538 1.538z" fill="#FFBB58"/><path d="M47.275 11.562l-8.894 8.894a1.087 1.087 0 01-1.538 0l-4.632-4.633a1.087 1.087 0 011.537-1.537l3.864 3.863 8.125-8.125a1.087 1.087 0 011.538 1.538z" stroke="#FFF" stroke-width=".5" fill="#FFF"/></g><path d="M138.15 159.044L122 149" fill="#D8D8D8"/><ellipse fill="#FFF4E4" cx="126" cy="137.5" rx="119" ry="46.5"/><path d="M4.065 52.02a8 8 0 0114.5-5.593A6.178 6.178 0 0122.5 45c3.59 0 6.5 3.134 6.5 7 0 .085-.001.17-.004.255A4.502 4.502 0 0127.5 61h-23a4.5 4.5 0 01-.435-8.98z" fill="url(#c)"/><path d="M169.019 11a6.5 6.5 0 0112.018-3.907 5.002 5.002 0 015.868 3.93A3.5 3.5 0 01186.5 18h-18a3.5 3.5 0 110-7h.519z" fill="url(#d)"/><path d="M256.563 143.29c0-3.108-27.907-16.584-65.647-22.917-9.206-1.544-19.022-2.05-29.31-2.05-52.468 0-90.894 11.331-90.894 15.197 0 2.715 52.211 9.953 91.97 12.043 39.76 2.09 93.881 1.593 93.881-2.273z" fill="url(#e)" transform="rotate(-4 163.638 132.553)"/><path d="M16.8 130.333v7.267h-1.6v-7.205c-.98.022-1.895.005-2.568.005-2.558 0-4.632-2.149-4.632-4.8 0-1.324.517-2.523 1.354-3.392a3.447 3.447 0 01-.512-1.808c0-1.853 1.474-3.38 3.37-3.578.046-1.985 1.707-4.822 3.367-4.822s3.32 2.837 3.367 4.822c1.896.198 3.37 1.725 3.37 3.578 0 .457-.09.894-.253 1.296A4.849 4.849 0 0124 125.6c0 2.651-2.074 4.8-4.632 4.8-.737 0-1.682.028-2.568-.067z" fill="#FFD699"/><path d="M201 165.916V175h-2v-9.007c-1.226.029-2.368.007-3.21.007-3.198 0-5.79-2.686-5.79-6 0-1.655.647-3.154 1.693-4.24a4.31 4.31 0 01-.64-2.26c0-2.317 1.842-4.224 4.211-4.473.059-2.481 2.134-6.027 4.21-6.027 2.075 0 4.15 3.546 4.209 6.027 2.369.249 4.212 2.156 4.212 4.473 0 .57-.112 1.117-.316 1.62 1.466 1.088 2.421 2.868 2.421 4.88 0 3.314-2.592 6-5.79 6-.92 0-2.102.035-3.21-.084z" fill="#FFC979"/><path d="M204.15 102.896v5.904h-1.3v-5.854c-.797.018-1.54.004-2.087.004-2.078 0-3.763-1.746-3.763-3.9 0-1.076.42-2.05 1.1-2.756a2.801 2.801 0 01-.416-1.469c0-1.506 1.198-2.746 2.738-2.907.038-1.613 1.387-3.918 2.736-3.918 1.349 0 2.698 2.305 2.736 3.918 1.54.161 2.738 1.401 2.738 2.907 0 .371-.073.726-.206 1.053A3.94 3.94 0 01210 99.05c0 2.154-1.685 3.9-3.763 3.9-.6 0-1.367.023-2.087-.054z" fill="#FFD597" opacity=".675"/><path d="M87.383 10.38H70.384c-.797-3.415-4.01-6.047-7.765-6.047h-8.424C53.12 1.701 50.578 0 47.644 0c-2.947 0-5.49 1.713-6.552 4.333H32.53c-3.744 0-6.956 2.632-7.766 6.047H7.766C3.352 10.38 0 13.93 0 18.264v84.852C0 107.449 3.478 111 7.766 111h79.477c4.414 0 8.158-3.551 8.158-7.884V18.264c.14-4.333-3.604-7.884-8.018-7.884zM47.77 14.192c3.617 0 6.425 2.893 6.425 6.307 0 3.551-2.947 6.307-6.425 6.307-3.617 0-6.425-2.893-6.425-6.307 0-3.414 2.82-6.307 6.425-6.307zm24.486 65.284c0 1.576-1.34 2.892-2.947 2.892H26.231c-1.606 0-2.947-1.316-2.947-2.892v-2.633c0-1.577 1.341-2.893 2.947-2.893H69.31c1.606 0 2.947 1.316 2.947 2.893v2.633zm0-26.67c0 1.577-1.34 2.893-2.947 2.893H26.231c-1.606 0-2.947-1.316-2.947-2.893v-2.633c0-1.576 1.341-2.892 2.947-2.892H69.31c1.606 0 2.947 1.316 2.947 2.892v2.633z" fill="url(#f)" fill-rule="nonzero" transform="translate(67 29)"/></g></g></g></svg>