<svg width="273" height="180" xmlns="http://www.w3.org/2000/svg" xmlns:xlink="http://www.w3.org/1999/xlink"><defs><linearGradient x1="50%" y1="0%" x2="50%" y2="100%" id="c"><stop stop-color="#FFBB58" offset="0%"/><stop stop-color="#FFF" stop-opacity="0" offset="100%"/></linearGradient><linearGradient x1="50%" y1="0%" x2="50%" y2="100%" id="d"><stop stop-color="#FFBB58" offset="0%"/><stop stop-color="#FFF" stop-opacity="0" offset="100%"/></linearGradient><linearGradient x1="40.784%" y1="50%" x2="100%" y2="50%" id="e"><stop stop-color="#FFD290" offset="0%"/><stop stop-color="#FFF" stop-opacity="0" offset="100%"/></linearGradient><linearGradient x1="36.79%" y1="19.345%" x2="83.785%" y2="85.393%" id="f"><stop stop-color="#FFDFB1" offset="0%"/><stop stop-color="#FA9A0F" offset="100%"/></linearGradient><rect id="a" x="0" y="0" width="300" height="200" rx="7"/></defs><g transform="translate(-13 -10)" fill="none" fill-rule="evenodd"><mask id="b" fill="#fff"><use xlink:href="#a"/></mask><g mask="url(#b)"><g transform="translate(13 10)"><path d="M154.15 155.044L138 145" fill="#D8D8D8"/><ellipse fill="#FFF4E4" cx="142" cy="133.5" rx="119" ry="46.5"/><path d="M4.065 46.02a8 8 0 0114.5-5.593A6.178 6.178 0 0122.5 39c3.59 0 6.5 3.134 6.5 7 0 .085-.001.17-.004.255A4.502 4.502 0 0127.5 55h-23a4.5 4.5 0 01-.435-8.98z" fill="url(#c)"/><path d="M185.019 7a6.5 6.5 0 0112.018-3.907 5.002 5.002 0 015.868 3.93A3.5 3.5 0 01202.5 14h-18a3.5 3.5 0 110-7h.519z" fill="url(#d)"/><path d="M170.112 145.989c56.381 10.436 101.387 7.712 101.387 1.586 0-6.126-35.952-33.575-88.42-33.575-52.466 0-71.079 6.252-71.079 12.378s1.731 9.174 58.112 19.61z" fill="url(#e)" transform="rotate(-7 191.75 133.5)"/><path d="M32.8 126.333v7.267h-1.6v-7.205c-.98.022-1.895.005-2.568.005-2.558 0-4.632-2.149-4.632-4.8 0-1.324.517-2.523 1.354-3.392a3.447 3.447 0 01-.512-1.808c0-1.853 1.474-3.38 3.37-3.578.046-1.985 1.707-4.822 3.367-4.822s3.32 2.837 3.367 4.822c1.896.198 3.37 1.725 3.37 3.578 0 .457-.09.894-.253 1.296A4.849 4.849 0 0140 121.6c0 2.651-2.074 4.8-4.632 4.8-.737 0-1.682.028-2.568-.067z" fill="#FFD699"/><path d="M217 161.916V171h-2v-9.007c-1.226.029-2.368.007-3.21.007-3.198 0-5.79-2.686-5.79-6 0-1.655.647-3.154 1.693-4.24a4.31 4.31 0 01-.64-2.26c0-2.317 1.842-4.224 4.211-4.473.059-2.481 2.134-6.027 4.21-6.027 2.075 0 4.15 3.546 4.209 6.027 2.369.249 4.212 2.156 4.212 4.473 0 .57-.112 1.117-.316 1.62 1.466 1.088 2.421 2.868 2.421 4.88 0 3.314-2.592 6-5.79 6-.92 0-2.102.035-3.21-.084z" fill="#FFC979"/><path d="M220.15 98.896v5.904h-1.3v-5.854c-.797.018-1.54.004-2.087.004-2.078 0-3.763-1.746-3.763-3.9 0-1.076.42-2.05 1.1-2.756a2.801 2.801 0 01-.416-1.469c0-1.506 1.198-2.746 2.738-2.907.038-1.613 1.387-3.918 2.736-3.918 1.349 0 2.698 2.305 2.736 3.918 1.54.161 2.738 1.401 2.738 2.907 0 .371-.073.726-.206 1.053A3.94 3.94 0 01226 95.05c0 2.154-1.685 3.9-3.763 3.9-.6 0-1.367.023-2.087-.054z" fill="#FFD597" opacity=".675"/><g transform="translate(40 11)"><path d="M30.946 7.355l-2.693-5.02C27.55 1.025 25.803 0 24.281 0H7.731C6.21 0 4.46 1.018 3.751 2.318L1.063 7.234C.467 8.324 0 10.15 0 11.386v16.512C0 29.607 1.438 31 3.205 31h25.594C30.562 31 32 29.607 32 27.898V11.503c-.008-1.236-.467-3.057-1.054-4.148z" fill="#FFBB58" fill-rule="nonzero"/><path d="M29.529 11.503v16.395c0 .392-.33.71-.734.71H3.205a.724.724 0 01-.734-.71V11.366h27.053a.734.734 0 00.005.137z" fill="#FFBB58" fill-rule="nonzero"/><rect fill="#FFF6E9" x="7" y="15" width="18" height="3" rx="1.5"/><path d="M7.731 2.391h16.55c.625 0 1.492.51 1.784 1.05l2.692 5.017c.076.137.15.31.23.517H2.972c.091-.259.183-.46.27-.618L5.932 3.44c.296-.54 1.17-1.05 1.8-1.05z" fill="#FFD18E" fill-rule="nonzero"/></g><g fill-rule="nonzero"><path d="M60.547 0C27.109 0 0 26.113 0 58.34c0 32.226 27.09 58.34 60.547 58.34 33.437 0 60.547-26.114 60.547-58.34C121.074 26.133 93.964 0 60.547 0z" fill="url(#f)" transform="translate(74 28)"/><path d="M154.47 88.759c1.957 0 3.546 1.524 3.546 3.417 0 1.894-1.589 3.418-3.546 3.418h-15.916v16.927c0 1.877-1.589 3.401-3.546 3.401-1.942 0-3.546-1.524-3.546-3.401V95.578h-15.916c-1.958 0-3.546-1.524-3.546-3.418 0-1.893 1.588-3.417 3.546-3.417h15.932v-8.022h-15.916c-1.958 0-3.546-1.525-3.546-3.418 0-1.877 1.588-3.401 3.546-3.401h15.916v-.915l-11.36-11.135s-.016 0-.016-.016c0 0 0-.016-.016-.016l-.08-.08.016-.016c-1.267-1.348-1.235-3.417.129-4.701 1.363-1.284 3.497-1.268 4.877-.048l.016-.016.096.096s.016 0 .016.016c0 0 0 .016.017.016l9.77 9.595 9.836-9.659c1.364-1.348 3.61-1.364 5.006-.048a3.335 3.335 0 01.048 4.83l-11.28 11.054v1.043h15.917c1.957 0 3.546 1.524 3.546 3.401 0 1.893-1.589 3.418-3.546 3.418h-15.916v8.022l15.916.016z" fill="#FFF"/></g></g></g></g></svg>