<svg width="750" height="316" xmlns="http://www.w3.org/2000/svg" xmlns:xlink="http://www.w3.org/1999/xlink"><defs><linearGradient x1="33.633%" y1="35.024%" x2="75.199%" y2="62.158%" id="b"><stop stop-color="#D2BA7E" offset="0%"/><stop stop-color="#B98A4E" offset="100%"/></linearGradient><linearGradient x1="-289.693%" y1="27.905%" x2="560.858%" y2="-9.351%" id="d"><stop stop-color="#C4A064" offset="0%"/><stop stop-color="#C29B5F" stop-opacity=".306" offset="100%"/></linearGradient><linearGradient x1="-289.693%" y1="32.031%" x2="560.858%" y2="1.732%" id="e"><stop stop-color="#C4A064" offset="0%"/><stop stop-color="#C29B5F" stop-opacity=".306" offset="100%"/></linearGradient><linearGradient x1="-289.693%" y1="31.755%" x2="560.858%" y2=".991%" id="f"><stop stop-color="#C4A064" offset="0%"/><stop stop-color="#C29B5F" stop-opacity=".306" offset="100%"/></linearGradient><linearGradient x1="-289.693%" y1="31.619%" x2="560.858%" y2=".626%" id="g"><stop stop-color="#C4A064" offset="0%"/><stop stop-color="#C29B5F" stop-opacity=".306" offset="100%"/></linearGradient><linearGradient x1="-289.693%" y1="31.223%" x2="560.858%" y2="-.439%" id="h"><stop stop-color="#C4A064" offset="0%"/><stop stop-color="#C29B5F" stop-opacity=".306" offset="100%"/></linearGradient><linearGradient x1="-289.693%" y1="30.693%" x2="560.858%" y2="-1.862%" id="i"><stop stop-color="#C4A064" offset="0%"/><stop stop-color="#C29B5F" stop-opacity=".306" offset="100%"/></linearGradient><linearGradient x1="-289.693%" y1="30.466%" x2="560.858%" y2="-2.471%" id="j"><stop stop-color="#C4A064" offset="0%"/><stop stop-color="#C29B5F" stop-opacity=".306" offset="100%"/></linearGradient><linearGradient x1="-289.693%" y1="29.964%" x2="560.858%" y2="-3.821%" id="k"><stop stop-color="#C4A064" offset="0%"/><stop stop-color="#C29B5F" stop-opacity=".306" offset="100%"/></linearGradient><linearGradient x1="-289.693%" y1="28.879%" x2="560.858%" y2="-6.736%" id="l"><stop stop-color="#C4A064" offset="0%"/><stop stop-color="#C29B5F" stop-opacity=".306" offset="100%"/></linearGradient><linearGradient x1="-289.693%" y1="28.414%" x2="560.858%" y2="-7.984%" id="m"><stop stop-color="#C4A064" offset="0%"/><stop stop-color="#C29B5F" stop-opacity=".306" offset="100%"/></linearGradient><linearGradient x1="-289.693%" y1="27.768%" x2="560.858%" y2="-9.719%" id="n"><stop stop-color="#C4A064" offset="0%"/><stop stop-color="#C29B5F" stop-opacity=".306" offset="100%"/></linearGradient><linearGradient x1="-289.693%" y1="27.012%" x2="560.858%" y2="-11.75%" id="o"><stop stop-color="#C4A064" offset="0%"/><stop stop-color="#C29B5F" stop-opacity=".306" offset="100%"/></linearGradient><linearGradient x1="-289.693%" y1="26.882%" x2="560.858%" y2="-12.099%" id="p"><stop stop-color="#C4A064" offset="0%"/><stop stop-color="#C29B5F" stop-opacity=".306" offset="100%"/></linearGradient><linearGradient x1="-289.693%" y1="26.643%" x2="560.858%" y2="-12.742%" id="q"><stop stop-color="#C4A064" offset="0%"/><stop stop-color="#C29B5F" stop-opacity=".306" offset="100%"/></linearGradient><linearGradient x1="-289.693%" y1="26.468%" x2="560.858%" y2="-13.212%" id="r"><stop stop-color="#C4A064" offset="0%"/><stop stop-color="#C29B5F" stop-opacity=".306" offset="100%"/></linearGradient><linearGradient x1="-289.693%" y1="26.007%" x2="560.858%" y2="-14.451%" id="s"><stop stop-color="#C4A064" offset="0%"/><stop stop-color="#C29B5F" stop-opacity=".306" offset="100%"/></linearGradient><linearGradient x1="-289.693%" y1="25.663%" x2="560.858%" y2="-15.373%" id="t"><stop stop-color="#C4A064" offset="0%"/><stop stop-color="#C29B5F" stop-opacity=".306" offset="100%"/></linearGradient><linearGradient x1="-289.693%" y1="25.278%" x2="560.858%" y2="-16.407%" id="u"><stop stop-color="#C4A064" offset="0%"/><stop stop-color="#C29B5F" stop-opacity=".306" offset="100%"/></linearGradient><linearGradient x1="-289.693%" y1="25.126%" x2="560.858%" y2="-16.817%" id="v"><stop stop-color="#C4A064" offset="0%"/><stop stop-color="#C29B5F" stop-opacity=".306" offset="100%"/></linearGradient><linearGradient x1="-289.693%" y1="25.026%" x2="560.858%" y2="-17.086%" id="w"><stop stop-color="#C4A064" offset="0%"/><stop stop-color="#C29B5F" stop-opacity=".306" offset="100%"/></linearGradient><linearGradient x1="-289.693%" y1="25.025%" x2="560.858%" y2="-17.087%" id="x"><stop stop-color="#C4A064" offset="0%"/><stop stop-color="#C29B5F" stop-opacity=".306" offset="100%"/></linearGradient><linearGradient x1="-289.693%" y1="24.574%" x2="560.858%" y2="-18.3%" id="y"><stop stop-color="#C4A064" offset="0%"/><stop stop-color="#C29B5F" stop-opacity=".306" offset="100%"/></linearGradient><linearGradient x1="-289.693%" y1="24.446%" x2="560.858%" y2="-18.643%" id="z"><stop stop-color="#C4A064" offset="0%"/><stop stop-color="#C29B5F" stop-opacity=".306" offset="100%"/></linearGradient><linearGradient x1="-289.693%" y1="24.044%" x2="560.858%" y2="-19.723%" id="A"><stop stop-color="#C4A064" offset="0%"/><stop stop-color="#C29B5F" stop-opacity=".306" offset="100%"/></linearGradient><linearGradient x1="-289.693%" y1="24.001%" x2="560.858%" y2="-19.838%" id="B"><stop stop-color="#C4A064" offset="0%"/><stop stop-color="#C29B5F" stop-opacity=".306" offset="100%"/></linearGradient><linearGradient x1="-289.693%" y1="23.983%" x2="560.858%" y2="-19.887%" id="C"><stop stop-color="#C4A064" offset="0%"/><stop stop-color="#C29B5F" stop-opacity=".306" offset="100%"/></linearGradient><linearGradient x1="-289.693%" y1="23.892%" x2="560.858%" y2="-20.133%" id="D"><stop stop-color="#C4A064" offset="0%"/><stop stop-color="#C29B5F" stop-opacity=".306" offset="100%"/></linearGradient><linearGradient x1="-289.693%" y1="23.774%" x2="560.858%" y2="-20.449%" id="E"><stop stop-color="#C4A064" offset="0%"/><stop stop-color="#C29B5F" stop-opacity=".306" offset="100%"/></linearGradient><linearGradient x1="-289.693%" y1="23.554%" x2="560.858%" y2="-21.041%" id="F"><stop stop-color="#C4A064" offset="0%"/><stop stop-color="#C29B5F" stop-opacity=".306" offset="100%"/></linearGradient><linearGradient x1="-289.693%" y1="23.533%" x2="560.858%" y2="-21.097%" id="G"><stop stop-color="#C4A064" offset="0%"/><stop stop-color="#C29B5F" stop-opacity=".306" offset="100%"/></linearGradient><linearGradient x1="-289.693%" y1="23.381%" x2="560.858%" y2="-21.505%" id="H"><stop stop-color="#C4A064" offset="0%"/><stop stop-color="#C29B5F" stop-opacity=".306" offset="100%"/></linearGradient><linearGradient x1="-289.693%" y1="23.272%" x2="560.858%" y2="-21.796%" id="I"><stop stop-color="#C4A064" offset="0%"/><stop stop-color="#C29B5F" stop-opacity=".306" offset="100%"/></linearGradient><linearGradient x1="-289.693%" y1="23.232%" x2="560.858%" y2="-21.903%" id="J"><stop stop-color="#C4A064" offset="0%"/><stop stop-color="#C29B5F" stop-opacity=".306" offset="100%"/></linearGradient><linearGradient x1="-289.693%" y1="23.117%" x2="560.858%" y2="-22.213%" id="K"><stop stop-color="#C4A064" offset="0%"/><stop stop-color="#C29B5F" stop-opacity=".306" offset="100%"/></linearGradient><linearGradient x1="-289.693%" y1="23.008%" x2="560.858%" y2="-22.507%" id="L"><stop stop-color="#C4A064" offset="0%"/><stop stop-color="#C29B5F" stop-opacity=".306" offset="100%"/></linearGradient><linearGradient x1="-289.693%" y1="22.977%" x2="560.858%" y2="-22.589%" id="M"><stop stop-color="#C4A064" offset="0%"/><stop stop-color="#C29B5F" stop-opacity=".306" offset="100%"/></linearGradient><linearGradient x1="-289.693%" y1="22.793%" x2="560.858%" y2="-23.084%" id="N"><stop stop-color="#C4A064" offset="0%"/><stop stop-color="#C29B5F" stop-opacity=".306" offset="100%"/></linearGradient><linearGradient x1="-289.693%" y1="22.795%" x2="560.858%" y2="-23.077%" id="O"><stop stop-color="#C4A064" offset="0%"/><stop stop-color="#C29B5F" stop-opacity=".306" offset="100%"/></linearGradient><linearGradient x1="-289.693%" y1="22.852%" x2="560.858%" y2="-22.925%" id="P"><stop stop-color="#C4A064" offset="0%"/><stop stop-color="#C29B5F" stop-opacity=".306" offset="100%"/></linearGradient><linearGradient x1="-289.693%" y1="22.683%" x2="560.858%" y2="-23.379%" id="Q"><stop stop-color="#C4A064" offset="0%"/><stop stop-color="#C29B5F" stop-opacity=".306" offset="100%"/></linearGradient><path id="a" d="M.587 0h749.001v316H.587z"/></defs><g fill="none" fill-rule="evenodd"><mask id="c" fill="#fff"><use xlink:href="#a"/></mask><use fill="url(#b)" xlink:href="#a"/><g mask="url(#c)"><path d="M679.07 563.951c-1.422 2.047-3.627 3.17-6.189 4.385-5.602 2.485-12.43 3.765-18.581 5.494-3.077.864-5.985 1.84-8.488 3.132-2.13 1.271-4.192 2.634-5.616 4.385-3.345 4.739-4.594 9.904-9.041 14.511-3.024 2.858-7.08 5.012-12.306 4.84-2.062-.02-4.516-.354-4.763-1.813-2.197-9.947-12.858-16.877-25.156-21.722-8.53-3.33-17.702-5.663-25.236-10.081-3.697-2.089-3.694-6.24.503-8.154 5.477-2.523 11.167-3.993 17.071-5.795 4.943-1.693 10.172-4.289 10.415-8.37.136-2.727-.502-5.536-.667-8.31-.164-2.773.145-5.511 2.166-8.096 2.16-2.3 5.347-3.958 9.018-5.034 10.025-3.092 27.447-2.06 28.863 5.875.507 3.052 1.63 5.697 3.237 8.02 8.303 11.826 28.176 14.577 43.959 20.46.248.073.284.479.394.997 1.397 1.8 1.554 3.606.417 5.276z" stroke="url(#d)" stroke-width=".75" transform="rotate(-24 -98.317 1513.33)"/><path d="M550.057 552.682c5.467-3.124 11.471-5.296 18.03-6.447 9.333-1.638 18.696-4.962 22.33-11.024 2.475-4.108 4.326-8.265 6.374-12.361 1.541-3.082 3.102-5.722 5.642-6.79 2.54-1.066 5.999.685 9.611-.493 9.702-3.16 27.32.888 30.894 8.958 1.503 3.395 4.29 5.863 6.88 8.626 10.304 10.99 31.175 12.512 46.435 21.296 1.135.656 1.456 2.097 1.654 3.523 1.685 4.293-.417 9.71-5.153 10.7-2.783 1.738-6.168 2.923-9.916 4.015-11.393 3.32-21.228 8.71-31.735 12.465-3.012 1.077-6.11 1.792-8.802 3.01-3.02 1.325-6.01 2.249-7.861 3.725-4.471 3.567-4.944 9.277-10.146 12.228-3.211 1.823-7.347 1.848-12.548.014-2.1-.74-4.631-1.858-5.163-3.974-2.577-10.253-13.412-17.421-26.01-22.835-10.164-4.367-21.25-7.625-30.167-13.47-4.577-3.001-5.203-8.39-.349-11.166z" stroke="url(#e)" stroke-width=".808" transform="rotate(-24 -98.317 1513.33)"/><path d="M535.06 546.425c5.42-3.71 11.752-6.445 18.8-7.247 13.743-1.567 27.044-5.752 34.039-13.953 4.793-5.596 8.759-11.175 13.365-16.734 2.874-3.468 6.562-6.71 9.066-5.607 2.957 1.303 6.26 2.09 10.105 4.102 9.99-.383 27.1 3.948 32.598 12.276 2.55 3.86 6.844 6.132 10.462 9.426 11.69 10.637 32.906 12.815 48.421 22.6 2.02 1.272 2.618 3.78 2.902 6.16 1.956 6.911-2.53 14.864-10.683 16.431-4.287.824-8.703 2.606-13.547 3.72-17.203 3.96-29.783 13.853-44.586 19.806-2.951 1.188-6.169 1.781-9.024 2.95-3.882 1.408-7.618 1.928-10.027 3.135-5.177 2.595-6.385 7.164-11.145 10.174-3.887-.327-7.597-1.356-12.658-4.883-2.146-1.495-4.722-3.415-5.51-6.254-2.985-10.76-13.806-18.404-26.59-24.449-11.695-5.528-24.608-9.747-34.788-17.196-5.427-3.971-6.68-10.706-1.2-14.457z" stroke="url(#f)" stroke-width=".865" transform="rotate(-24 -98.317 1513.33)"/><path d="M520.236 540.42c5.451-4.165 12.22-8.91 19.759-7.908 18.22 2.42 35.673-6.432 46.106-16.632 7.163-6.989 13.166-14.028 20.501-20.82 4.173-3.864 9.651-5.725 12.587-4.29 3.894 1.906 6.75 5.129 10.7 8.678 10.018.993 27.296 6.93 34.632 15.387 3.68 4.24 9.422 6.296 14.152 10.038 12.948 10.248 34.859 13.041 50.895 23.448 2.914 1.892 3.806 5.41 4.18 8.708 2.246 9.426-4.432 20.854-16.33 21.901-5.592.494-11.333 2.208-17.32 3.348-23.21 4.42-38.65 18.733-57.902 26.838-2.933 1.234-6.29 1.732-9.335 2.828-4.785 1.46-9.13 2.187-12.299 2.468-5.364 2.747-7.317 5.705-12.257 7.875-4.34-1.932-7.911-4.65-12.893-9.75-2.21-2.26-4.852-4.922-5.912-8.434-3.345-11.066-14.32-19.068-27.435-25.572-13.342-6.618-28.21-11.712-39.764-20.616-6.333-4.882-8.221-12.794-2.065-17.495z" stroke="url(#g)" stroke-width=".923" transform="rotate(-24 -98.317 1513.33)"/><path d="M506.789 533.875c5.451-4.564 12.572-9.794 20.529-8.538 22.503 3.556 43.98-7.087 57.754-19.237 9.47-8.348 17.425-16.894 27.455-24.808 5.429-4.284 12.784-5.536 15.994-2.972 4.43 3.54 7.177 8.123 11.192 13.188 9.95 2.35 27.298 9.814 36.338 18.423 4.808 4.58 11.884 6.462 17.713 10.615 13.967 9.95 36.444 13.275 52.884 24.22 3.773 2.512 4.96 7.01 5.42 11.205 2.515 11.888-6.326 26.833-21.832 27.259-6.871.188-13.858 1.794-20.931 2.966-29.012 4.806-47.177 23.47-70.69 33.726-2.893 1.262-6.352 1.68-9.557 2.697-5.643 1.51-10.725 2.017-14.456 1.804-6.004 2.05-8.18 4.241-13.254 5.574-4.751-3.519-8.12-7.938-13.006-14.543-2.237-3.026-4.923-6.405-6.257-10.57-3.634-11.35-14.685-19.702-28.018-26.612-14.854-7.7-31.543-13.631-44.367-23.944-7.176-5.772-9.673-14.793-2.911-20.453z" stroke="url(#h)" stroke-width=".981" transform="rotate(-24 -98.317 1513.33)"/><path d="M493.142 527.808c5.473-4.965 12.92-10.659 21.31-9.214 26.797 4.613 52.265-7.781 69.373-21.94 11.769-9.75 21.662-19.886 34.385-28.917 6.683-4.745 15.86-5.399 19.39-1.68 4.91 5.172 7.605 11.146 11.69 17.746 9.892 3.716 27.352 12.695 38.06 21.55 5.953 4.92 14.318 6.695 21.268 11.253 14.928 9.787 38.032 13.606 54.9 25.129 4.62 3.155 6.111 8.638 6.656 13.753 2.785 14.406-8.233 32.981-27.312 32.741-8.164-.102-16.378 1.39-24.538 2.607-34.798 5.184-55.698 28.274-83.448 40.77-2.858 1.288-6.418 1.637-9.785 2.584-6.5 1.57-12.317 1.86-16.61 1.152-6.647 1.373-9.045 2.812-14.255 3.32-5.164-5.115-8.309-11.26-13.127-19.391-2.258-3.812-4.993-7.918-6.607-12.756-3.903-11.704-15.047-20.47-28.62-27.8-16.36-8.84-34.877-15.628-48.974-27.394-8.02-6.694-11.109-16.842-3.756-23.513z" stroke="url(#i)" stroke-width="1.038" transform="rotate(-24 -98.317 1513.33)"/><path d="M479.294 522.408c5.51-5.32 13.258-11.414 22.1-9.833 31.097 5.564 60.537-8.423 80.969-24.496 14.062-11.084 25.887-22.766 41.296-32.83 7.94-5.187 18.911-5.248 22.781-.388 5.368 6.747 8.036 14.088 12.194 22.174 9.838 5.05 27.433 15.455 39.795 24.53 7.102 5.212 16.73 6.913 24.813 11.818 15.86 9.624 39.624 13.868 56.94 25.885 5.459 3.787 7.26 10.209 7.89 16.205 3.055 16.822-10.15 38.925-32.782 37.998-9.463-.387-18.892.977-28.138 2.231-40.574 5.51-64.227 32.842-96.187 47.533-2.829 1.301-6.487 1.586-10.02 2.456-7.354 1.618-13.775.864-18.761.498-7.3-.536-9.91 1.376-15.258 1.061-5.579-6.673-8.487-14.497-13.255-24.096-2.272-4.57-5.059-9.38-6.958-14.853-4.16-11.991-15.41-21.127-29.234-28.82-17.86-9.937-38.213-17.52-53.589-30.658-8.862-7.57-12.524-18.76-4.596-26.415z" stroke="url(#j)" stroke-width="1.096" transform="rotate(-24 -98.317 1513.33)"/><path d="M464.268 516.32c5.592-5.685 13.673-12.19 23.03-10.49 35.61 6.469 69.196-9.101 93.085-27.148 16.446-12.46 30.28-25.745 48.476-36.868 9.25-5.654 22.077-5.132 26.316.897 5.853 8.325 8.518 17.069 12.774 26.67 9.845 6.396 27.69 18.244 41.781 27.6 8.303 5.511 19.238 7.186 28.519 12.435 16.876 9.543 41.457 14.195 59.336 26.754 6.325 4.444 8.454 11.815 9.174 18.716 3.344 19.3-12.144 45.018-38.46 43.39-10.833-.668-21.53.57-31.922 1.872-46.61 5.841-73.186 37.484-109.542 54.464-2.819 1.315-6.596 1.54-10.314 2.34-8.26 1.673-15.395.694-21.036-.15-7.886-1.18-10.838-.043-16.357-1.176-6.027-8.25-8.706-17.776-13.468-28.879-2.29-5.343-5.148-10.873-7.351-17-4.435-12.337-15.862-21.892-30.032-29.966-19.464-11.088-41.79-19.484-58.542-34.04-9.758-8.48-14.004-20.736-5.467-29.42z" stroke="url(#k)" stroke-width="1.154" transform="rotate(-24 -98.317 1513.33)"/><path d="M452.067 510.36c5.633-6.08 13.962-13.024 23.76-11.212 39.832 7.36 77.26-9.832 104.398-29.96 18.686-13.91 34.413-28.89 55.234-41.126 10.485-6.16 25.05-5.054 29.626 2.19 6.285 9.945 8.927 20.156 13.244 31.33 9.769 7.783 27.709 21.129 43.409 30.836 9.433 5.832 21.568 7.525 31.978 13.125 17.736 9.544 42.93 14.606 61.224 27.778 7.128 5.135 9.575 13.491 10.378 21.338 3.605 21.892-14.04 51.394-43.807 49.047-12.112-.955-23.98.161-35.427 1.52-52.242 6.196-81.535 42.31-121.952 61.723-2.784 1.338-6.65 1.504-10.522 2.237-9.09 1.74-16.892.548-23.126-.8-8.426-1.819-11.673-1.465-17.317-3.425-6.425-9.877-8.843-21.163-13.563-33.838-2.29-6.147-5.19-12.436-7.684-19.254-4.664-12.756-16.171-22.788-30.573-31.281-20.89-12.321-45.002-21.568-62.99-37.629-10.571-9.44-15.347-22.822-6.29-32.599z" stroke="url(#l)" stroke-width="1.212" transform="rotate(-24 -98.317 1513.33)"/><path d="M436.83 504.406c5.728-6.443 14.358-13.787 24.683-11.885 44.374 8.177 85.93-10.517 116.531-32.643 21.076-15.301 38.82-31.918 62.43-45.207 11.801-6.642 28.215-4.957 33.168 3.475 6.765 11.52 9.406 23.163 13.819 35.862 9.771 9.14 27.95 23.916 45.383 33.942 10.638 6.118 24.063 7.848 35.689 13.756 18.736 9.522 44.742 14.952 63.6 28.677 7.985 5.81 10.774 15.111 11.666 23.87 3.894 24.395-16.05 57.561-49.5 54.495-13.487-1.237-26.616-.248-39.211 1.16-58.285 6.517-90.547 46.916-135.325 68.724-2.773 1.351-6.756 1.462-10.813 2.123-9.993 1.798-18.537.408-25.4-1.447-9.052-2.447-12.6-2.889-18.413-5.67-6.874-11.465-9.048-24.46-13.77-38.658-2.303-6.926-5.267-13.95-8.075-21.425-4.927-13.12-16.608-23.59-31.36-32.459-22.474-13.512-48.572-23.557-67.938-41.052-11.467-10.36-16.8-24.8-7.163-35.638z" stroke="url(#m)" stroke-width="1.269" transform="rotate(-24 -98.317 1513.33)"/><path d="M421.824 497.645c5.813-6.824 14.71-14.588 25.54-12.596 48.822 8.983 94.4-11.242 128.394-35.443 23.415-16.747 43.135-35.064 69.48-49.45 13.094-7.15 31.318-4.88 36.634 4.777 7.23 13.13 9.861 26.253 14.359 40.525 9.746 10.53 28.114 26.781 47.24 37.167 11.82 6.42 26.496 8.217 39.317 14.436 19.687 9.547 46.436 15.347 65.814 29.673 8.814 6.516 11.946 16.785 12.925 26.489 4.174 26.983-18.03 63.94-55.078 60.138-14.836-1.523-29.192-.661-42.904.803-64.194 6.854-99.37 51.649-148.378 75.97-2.756 1.369-6.846 1.425-11.078 2.017-10.873 1.861-20.146.277-27.612-2.101-9.672-3.081-13.497-4.325-19.465-7.94-7.304-13.094-9.226-27.845-13.937-43.619-2.309-7.728-5.327-15.514-8.448-23.673-5.175-13.529-16.996-24.477-32.063-33.745-23.996-14.764-52.023-25.633-72.72-44.624-12.335-11.318-18.196-26.855-8.02-38.804z" stroke="url(#n)" stroke-width="1.327" transform="rotate(-24 -98.317 1513.33)"/><path d="M407.89 493.121c5.877-7.203 14.83-14.01 26.284-13.306 53.832 3.314 102.445-11.964 139.677-38.238 25.65-18.191 47.258-38.212 76.214-53.687 14.328-7.658 34.277-4.803 39.932 6.08 7.663 14.742 10.275 29.347 14.837 45.191 9.681 11.924 28.155 29.64 48.892 40.392 12.947 6.713 28.803 8.599 42.766 15.108 20.552 9.583 47.925 15.74 67.74 30.66 9.6 7.228 13.063 18.46 14.126 29.107 4.435 29.571-19.927 70.322-60.405 65.78-16.118-1.81-31.635-1.077-46.403.443-69.809 7.185-107.765 56.335-160.762 83.216-2.727 1.383-6.904 1.384-11.292 1.908-11.704 1.924-21.675.147-29.702-2.759-10.26-3.716-14.333-5.766-20.43-10.215-7.703-14.725-9.36-31.231-14.046-48.583-2.303-8.53-5.358-17.082-8.782-25.922-5.397-13.934-17.308-25.359-32.627-35.022-25.403-16.024-55.242-27.705-77.179-48.187-13.147-12.276-19.5-28.902-8.84-41.966z" stroke="url(#o)" stroke-width="1.385" transform="rotate(-24 -98.317 1513.33)"/><path d="M393.658 485.068c5.983-7.535 15.209-14.769 27.196-13.932 58.423 4.08 111.13-12.612 151.835-40.795 28.042-19.521 51.675-41.124 83.425-57.59 15.653-8.12 37.45-4.698 43.483 7.345 8.143 16.258 10.75 32.257 15.408 49.575 9.676 13.24 28.374 32.308 50.852 43.363 14.154 6.96 31.288 8.94 46.484 15.688 21.548 9.57 49.714 16.034 70.095 31.456 10.441 7.9 14.263 20.019 15.416 31.543 4.723 31.975-21.953 76.265-66.11 71.01-17.504-2.083-34.278-1.484-50.195.083-75.863 7.467-116.861 60.625-174.155 89.938-2.716 1.39-7.007 1.338-11.579 1.788-12.609 1.977-23.346.022-31.977-3.399-10.923-4.327-15.261-7.168-21.525-12.423-8.15-16.265-9.553-34.422-14.243-53.242-2.312-9.279-5.422-18.545-9.173-28.007-5.652-14.257-17.727-26.089-33.399-36.082-26.964-17.195-58.807-29.607-82.123-51.453-14.043-13.156-20.916-30.76-9.715-44.866z" stroke="url(#p)" stroke-width="1.442" transform="rotate(-24 -98.317 1513.33)"/><path d="M378.405 479.145c6.09-7.89 15.584-15.57 28.105-14.6 63.012 4.881 119.825-13.298 164.003-43.47 30.44-20.908 56.101-44.155 90.647-61.659 16.98-8.602 40.628-4.607 47.035 8.63 8.625 17.817 8.125 36.322 15.978 54.095 7.074 16.011 28.58 35.062 52.805 46.457 15.364 7.227 33.774 9.323 50.206 16.317 22.545 9.595 51.493 16.376 72.44 32.347 11.277 8.6 15.462 21.635 16.705 34.068 5.012 34.469-23.983 82.425-71.823 76.441-18.891-2.364-36.921-1.895-53.988-.276-81.921 7.768-125.989 65.045-187.558 96.915-2.704 1.402-7.108 1.296-11.864 1.674-13.513 2.034-25.022-.103-34.254-4.045-11.592-4.95-16.186-8.589-22.616-14.663-8.597-17.849-9.743-37.703-14.438-58.05-2.318-10.052-5.48-20.06-9.562-30.17-5.904-14.624-18.14-26.9-34.164-37.251-28.515-18.424-62.37-31.594-87.066-54.866-14.936-14.075-22.32-32.703-10.591-47.894z" stroke="url(#q)" stroke-width="1.5" transform="rotate(-24 -98.317 1513.33)"/><path d="M364.803 474.461c6.19-8.223 15.928-16.329 28.96-15.23 67.483 5.692 128.302-13.947 175.877-46.026 32.783-22.238 60.427-47.067 97.706-65.56 18.276-9.066 43.732-4.508 50.504 9.888 9.091 19.325 8.588 39.142 16.517 58.464 7.057 17.2 28.73 37.716 54.657 49.426 16.546 7.472 36.197 9.692 53.84 16.902 23.5 9.603 53.172 16.676 74.642 33.155 12.092 9.28 16.638 23.19 17.968 36.5 5.292 36.868-25.973 88.36-77.408 81.663-20.245-2.636-39.497-2.301-57.684-.634-87.833 8.048-134.914 69.247-200.622 103.63-2.688 1.407-7.197 1.249-12.125 1.556-14.394 2.085-26.659-.226-36.47-4.68-12.247-5.56-18.295-9.008-23.666-16.86-12.078-17.658-9.912-40.878-14.603-62.695-2.32-10.797-5.524-21.521-9.934-32.253-6.145-14.954-18.514-27.641-34.862-38.323-30.009-19.61-65.82-33.496-91.848-58.13-15.802-14.957-23.675-34.554-11.45-50.793z" stroke="url(#r)" stroke-width="1.558" transform="rotate(-24 -98.317 1513.33)"/><path d="M350.725 467.92c6.282-8.596 16.244-17.168 29.764-15.936 71.834 6.55 136.558-14.665 187.447-48.814 35.07-23.68 64.647-50.218 104.595-69.791 19.542-9.575 46.761-4.434 53.886 11.195 9.54 20.928 9.049 42.167 17.026 63.127 7.037 18.488 28.832 40.557 56.419 52.643 17.696 7.753 38.553 10.12 57.375 17.571 24.42 9.67 54.762 17.063 76.723 34.134 12.879 10.011 17.782 24.863 19.197 39.115 5.563 39.453-27.918 94.74-82.858 87.296-21.565-2.922-42.006-2.718-61.28-.996-93.592 8.367-143.63 73.754-213.338 110.865-2.669 1.42-7.272 1.209-12.367 1.447-15.248 2.148-28.251-.351-38.62-5.339-12.888-6.199-19.156-10.523-24.676-19.137-12.43-19.4-10.065-44.258-14.744-67.657-2.32-11.595-5.55-23.095-10.29-34.496-6.363-15.365-18.855-28.526-35.5-39.592-31.445-20.902-69.155-35.565-96.472-61.685-16.642-15.913-24.981-36.576-12.287-53.95z" stroke="url(#s)" stroke-width="1.615" transform="rotate(-24 -98.317 1513.33)"/><path d="M336.206 462.498c6.386-8.971 16.585-18.008 30.619-16.642 76.298 7.426 145.037-15.385 199.322-51.602 37.412-25.121 68.974-53.369 111.655-74.02 20.84-10.085 49.865-4.358 57.355 12.504 10.006 22.531 9.534 45.198 17.565 67.792 7.034 19.788 28.978 43.397 58.273 55.86 18.877 8.03 40.972 10.556 61.007 18.24 25.383 9.735 56.439 17.444 78.929 35.105 13.684 10.747 18.955 26.535 20.457 41.73 5.843 42.037-29.909 101.122-88.443 92.928-22.92-3.208-44.582-3.135-64.975-1.356-99.504 8.682-152.608 78.215-226.404 118.1-2.652 1.433-7.36 1.167-12.63 1.336-16.128 2.21-29.892-.476-40.834-5.998-13.553-6.841-20.042-12.034-25.726-21.422-12.794-21.131-10.234-47.638-14.911-72.618-2.32-12.395-5.596-24.666-10.66-36.74-6.613-15.767-19.228-29.409-36.2-40.853-32.927-22.202-72.603-37.636-101.254-65.242-17.51-16.87-26.321-38.593-13.145-57.102z" stroke="url(#t)" stroke-width="1.673" transform="rotate(-24 -98.317 1513.33)"/><path d="M324.86 457.177c6.484-9.345 16.902-18.844 31.429-17.346 80.637 8.322 153.288-16.103 210.886-54.387 39.696-26.563 73.193-56.52 118.54-78.25 22.107-10.592 52.893-4.28 60.734 13.816 10.458 24.135 10.012 48.236 18.078 72.457 7.026 21.1 29.08 46.237 60.036 59.077 20.028 8.307 43.327 11 64.544 18.908 26.31 9.804 58.03 17.822 81.014 36.073 14.466 11.486 20.1 28.208 21.687 44.345 6.114 44.623-31.855 107.505-93.89 98.561-24.24-3.495-47.09-3.554-68.57-1.718-105.26 8.995-161.373 82.632-239.118 125.333-2.633 1.446-7.435 1.128-12.871 1.224-16.985 2.273-31.49-.599-42.986-6.657-14.2-7.484-20.893-13.54-26.737-23.707-13.133-22.855-10.387-51.02-15.054-77.583-2.318-13.192-5.624-26.24-11.015-38.986-6.841-16.17-19.569-30.287-36.844-42.109-34.351-23.508-75.938-39.707-105.88-68.797-18.348-17.825-27.613-40.605-13.982-60.254z" stroke="url(#u)" stroke-width="1.731" transform="rotate(-24 -98.317 1513.33)"/><path d="M308.546 451.084c6.582-9.68 17.217-19.602 32.236-17.977 84.975 9.195 161.541-16.752 222.45-56.944 41.98-27.89 77.41-59.433 125.423-82.147 23.373-11.058 55.92-4.186 64.113 15.068 10.909 25.635 10.495 51.076 18.59 76.818 7.023 22.33 29.184 48.879 61.804 62.043 21.177 8.546 45.679 11.403 68.08 19.494 27.24 9.838 59.62 18.127 83.102 36.889 15.244 12.18 21.244 29.762 22.916 46.774 6.384 47.018-33.8 113.433-99.334 103.777-25.561-3.767-49.597-3.958-72.166-2.073-111.014 9.27-170.164 86.655-251.828 132.036-2.614 1.453-7.513 1.083-13.115 1.109-17.84 2.326-33.09-.723-45.138-7.29-14.85-8.096-21.74-14.98-27.748-25.891-13.47-24.473-10.539-54.185-15.198-82.219-2.316-13.935-5.65-27.704-11.37-41.064-7.069-16.507-19.91-31.042-37.49-43.19-35.774-24.72-79.275-41.61-110.508-72.06-19.187-18.706-28.899-42.446-14.819-63.153z" stroke="url(#v)" stroke-width="1.788" transform="rotate(-24 -98.317 1513.33)"/><path d="M293.683 444.264c6.7-10.033 17.58-20.398 33.137-18.644 89.549 10.096 170.25-17.438 234.642-59.616 44.384-29.275 81.849-62.466 132.662-86.21 24.706-11.544 59.106-4.102 67.675 16.349 11.391 27.187 11.01 54.02 19.154 81.329 7.043 23.612 29.368 51.616 63.745 65.134 22.386 8.803 48.16 11.838 71.808 20.121 28.248 9.896 61.38 18.468 85.426 37.783 16.063 12.902 22.448 31.375 24.21 49.295 6.673 49.508-35.842 119.588-105.06 109.2-26.956-4.046-52.246-4.37-75.966-2.432-117.084 9.563-179.466 90.809-265.253 139.004-2.603 1.462-7.61 1.04-13.395.996-18.746 2.381-34.785-.848-47.417-7.936-15.546-8.724-22.647-16.443-28.837-28.125-13.845-26.132-10.722-57.456-15.386-87.017-2.32-14.705-5.691-29.225-11.758-43.225-7.317-16.88-20.305-31.862-38.241-44.361-37.29-25.987-82.836-43.594-115.447-75.468-20.08-19.626-30.262-44.368-15.699-66.177z" stroke="url(#w)" stroke-width="1.846" transform="rotate(-24 -98.317 1513.33)"/><path d="M278.21 438.992c6.819-10.37 17.941-21.156 34.034-19.277 94.122 10.99 178.962-18.088 246.84-62.172 46.787-30.605 86.29-65.38 139.905-90.107 26.04-12.011 62.294-4.012 71.237 17.596 11.874 28.684 11.53 56.864 19.72 85.683 7.063 24.855 29.547 54.252 65.682 68.099 23.596 9.042 50.643 12.255 75.54 20.71 29.258 9.939 63.132 18.777 87.743 38.608 16.879 13.6 23.653 32.926 25.505 51.72 6.96 51.902-37.887 125.513-110.792 114.412-28.349-4.317-54.893-4.771-79.766-2.785-123.156 9.838-188.798 94.746-278.683 145.705-2.591 1.47-7.708.995-13.674.88-19.651 2.435-36.48-.969-49.696-8.565-16.244-9.337-23.553-17.87-29.926-30.303-14.217-27.732-10.904-60.613-15.572-91.647-2.323-15.444-5.728-30.689-12.145-45.302-7.563-17.221-20.697-32.621-38.99-45.449-38.802-27.209-86.395-45.496-120.385-78.73-20.974-20.508-31.618-46.207-16.578-69.076z" stroke="url(#x)" stroke-width="1.904" transform="rotate(-24 -98.317 1513.33)"/><path d="M264.358 431.617c6.914-10.763 18.234-22.029 34.802-20.014 98.328 11.954 186.98-18.84 258.081-65.071 49.012-32.1 90.398-68.649 146.607-94.498 27.272-12.54 65.239-3.941 74.524 18.941 12.31 30.34 12.007 60.024 20.207 90.508 7.059 26.24 29.613 57.185 67.367 71.438 24.714 9.329 52.929 12.746 78.977 21.414 30.158 10.036 64.642 19.185 89.723 39.64 17.628 14.377 24.766 34.66 26.7 54.43 7.224 54.582-39.784 132.126-116.092 120.252-29.634-4.611-57.33-5.2-83.257-3.153-128.752 10.164-197.429 99.157-291.034 153.203-2.57 1.484-7.776.956-13.901.771-20.482 2.502-38.038-1.099-51.783-9.243-16.88-10-24.364-19.389-30.9-32.646-14.533-29.48-11.042-64.106-15.697-96.78-2.318-16.27-5.742-32.324-12.486-47.628-7.78-17.658-21.007-33.56-39.586-46.784-40.16-28.586-89.62-47.65-124.86-82.427-21.785-21.501-32.848-48.294-17.392-72.353z" stroke="url(#y)" stroke-width="1.962" transform="rotate(-24 -98.317 1513.33)"/><path d="M250.03 425.917c7.027-11.12 18.571-22.824 35.656-20.682 102.774 12.887 195.464-19.523 269.963-67.74 51.355-33.485 94.727-71.683 153.669-98.56 28.574-13.029 68.346-3.858 77.994 20.221 12.778 31.889 12.518 62.978 20.747 95.018 7.074 27.538 29.753 59.919 69.22 74.526 25.892 9.585 55.344 13.196 82.61 22.043 31.136 10.1 66.313 19.525 91.93 40.533 18.416 15.107 25.938 36.271 27.961 56.95C1087.283 605.298 1038 686.507 958.1 673.9c-30.992-4.889-59.906-5.61-86.955-3.51C736.48 680.842 664.567 773.566 567.04 830.556c-2.556 1.495-7.862.914-14.162.658-21.363 2.56-39.69-1.223-53.998-9.887-17.561-10.633-25.236-20.842-31.95-34.88-14.887-31.121-11.21-67.374-15.863-101.575-2.318-17.041-5.77-33.847-12.858-49.789-8.016-18.032-21.35-34.413-40.284-47.955-41.566-29.935-93.07-49.635-129.643-85.834-22.651-22.42-34.155-50.212-18.251-75.377z" stroke="url(#z)" stroke-width="2.019" transform="rotate(-24 -98.317 1513.33)"/><path d="M237.594 420.267c7.126-11.511 18.865-23.695 36.427-21.419 106.972 13.873 203.48-20.271 281.198-70.636 53.577-34.98 98.832-74.955 160.366-102.948 29.805-13.56 71.29-3.788 81.278 21.569 13.215 33.545 12.997 66.145 21.236 99.845 7.074 28.935 29.823 62.853 70.91 77.866 27.009 9.868 57.63 13.694 86.046 22.741 32.04 10.202 67.827 19.93 93.917 41.563 19.161 15.886 27.052 38.004 29.157 59.66 7.765 59.75-43.677 144.895-126.978 131.513-32.275-5.185-62.34-6.04-90.444-3.881-140.256 10.777-215.26 107.496-316.45 167.667-2.537 1.509-7.932.874-14.39.547-22.193 2.625-41.248-1.353-56.087-10.566-18.2-11.3-26.045-22.361-32.923-37.23-15.204-32.863-11.351-70.869-15.992-106.714-2.314-17.865-5.782-35.482-13.199-52.115-8.234-18.465-21.69-35.306-40.887-49.282-42.982-31.232-96.297-51.786-134.12-89.528-23.463-23.413-35.376-52.297-19.065-78.652z" stroke="url(#A)" stroke-width="2.077" transform="rotate(-24 -98.317 1513.33)"/><path d="M224.954 413.348c7.248-11.868 19.222-24.491 37.323-22.085 111.538 14.821 212.196-20.957 293.404-73.307 55.981-36.364 103.276-77.988 167.612-107.01 31.14-14.047 74.437-3.687 84.844 22.85 13.642 35.116 13.523 69.107 21.799 104.356 7.1 30.242 29.996 65.585 72.845 80.956 28.219 10.12 60.111 14.152 89.779 23.368 33.058 10.27 69.574 20.268 96.23 42.453 19.969 16.62 28.257 39.617 30.452 62.181 8.053 62.24-45.724 151.05-132.71 136.935-33.673-5.464-64.992-6.452-94.248-4.24-146.332 11.068-224.718 111.429-329.887 174.635-2.525 1.517-8.028.829-14.669.433-23.098 2.68-42.948-1.48-58.365-11.212-18.904-11.935-26.945-23.81-34.012-39.466-15.575-34.495-11.531-74.136-16.176-111.509-2.316-18.635-5.813-37.007-13.585-54.276-8.48-18.838-22.072-36.135-41.633-50.452-44.463-32.539-99.855-53.772-139.057-92.935-24.357-24.332-36.718-54.211-19.946-81.675z" stroke="url(#B)" stroke-width="2.135" transform="rotate(-24 -98.317 1513.33)"/><path d="M209.507 407.88c7.364-12.207 19.558-25.249 38.177-22.72 115.98 15.756 220.68-21.607 305.287-75.862 58.326-37.692 107.608-80.902 174.677-110.907 32.441-14.513 77.556-3.603 88.315 24.094 14.125 36.605 14.036 71.962 22.338 108.704 7.118 31.506 30.133 68.216 74.697 83.92 29.398 10.36 62.529 14.594 93.413 23.962 34.042 10.324 71.243 20.576 98.435 43.28 20.753 17.33 29.432 41.17 31.714 64.606 8.333 64.632-47.721 156.971-138.3 142.144-35.031-5.734-67.572-6.902-97.945-4.591-152.263 11.095-233.958 115.144-342.96 181.329-2.512 1.524-8.116.786-14.93.32-23.98 2.734-44.603-1.604-60.581-11.84-19.588-12.548-27.815-25.216-35.064-41.636-15.928-36.073-11.697-77.29-16.34-116.133-2.317-19.376-5.836-38.476-13.958-56.353-8.716-19.186-22.432-36.902-42.329-51.546-45.907-33.78-103.304-55.674-143.842-96.197-25.223-25.213-38.014-56.045-20.804-84.574z" stroke="url(#C)" stroke-width="2.192" transform="rotate(-24 -98.317 1513.33)"/><path d="M194.668 400.864c7.48-12.564 19.893-26.043 39.03-23.387 120.418 16.716 229.165-22.29 317.17-78.534 60.673-39.075 111.942-83.932 181.744-114.966 33.743-15.002 80.675-3.525 91.787 25.373 14.607 38.147 14.549 74.925 22.875 113.213 7.138 32.818 30.271 70.946 76.551 87.009 30.575 10.61 64.946 15.06 97.048 24.588 35.025 10.396 72.91 20.914 100.638 44.176 21.535 18.066 30.605 42.78 32.977 67.124 8.612 67.12-49.72 163.124-143.891 147.564-36.39-6.014-70.15-7.303-101.643-4.949-158.175 11.435-243.232 118.987-356.035 188.29-2.498 1.536-8.202.745-15.192.207-24.86 2.793-46.256-1.728-62.796-12.484-20.272-13.18-28.682-26.657-36.114-43.867-16.281-37.698-11.863-80.556-16.506-120.927-2.316-20.143-5.856-40.001-14.327-58.512-8.953-19.561-22.794-37.725-43.028-52.716-47.347-35.077-106.751-57.66-148.625-99.605-26.089-26.133-39.308-57.96-21.663-87.597z" stroke="url(#D)" stroke-width="2.25" transform="rotate(-24 -98.317 1513.33)"/><path d="M182.026 396.212c7.582-12.903 20.187-26.802 39.805-24.02 124.606 17.658 237.174-22.945 328.398-81.091 62.892-40.405 116.042-86.848 188.433-118.863 34.975-15.469 83.628-3.443 95.069 26.615 15.06 39.634 15.032 77.781 23.367 117.557 7.143 34.087 30.346 73.575 78.248 89.972 31.689 10.85 67.227 15.509 100.48 25.182 35.94 10.456 74.428 21.226 102.636 45.01 22.272 18.777 31.718 44.33 34.171 69.547 8.875 69.512-51.614 169.042-149.182 152.77-37.674-6.282-72.582-7.691-105.133-5.298-163.758 11.759-252.032 122.618-368.373 194.985-2.48 1.542-8.273.7-15.422.093-25.69 2.847-47.817-1.853-64.884-13.111-20.915-13.796-29.489-28.057-37.09-46.034-16.602-39.267-12.004-83.706-16.637-125.548-2.312-20.882-5.865-41.469-14.67-60.588-9.17-19.91-23.105-38.494-43.636-53.813-48.686-36.325-109.98-59.564-153.104-102.87-26.9-27.013-40.517-59.79-22.476-90.495z" stroke="url(#E)" stroke-width="2.308" transform="rotate(-24 -98.317 1513.33)"/><path d="M166.373 390.642c7.7-13.297 20.522-27.67 40.66-24.754 129.041 18.68 245.659-23.69 340.282-83.978 65.235-41.895 120.374-90.111 195.497-123.24 36.277-15.998 86.746-3.374 98.54 27.965 15.543 41.282 15.548 80.956 23.907 122.38 7.163 35.496 30.482 76.5 80.1 93.302 32.868 11.13 69.644 16.022 104.115 25.877 36.928 10.558 76.096 21.621 104.842 46.024 23.05 19.567 32.891 46.06 35.432 72.253 9.154 72.185-53.613 175.647-154.771 158.6-39.033-6.58-75.16-8.114-108.83-5.672-169.67 12.13-261.37 126.702-381.45 202.47-2.466 1.556-8.358.659-15.682-.02-26.57 2.91-49.473-1.986-67.1-13.79-21.601-14.469-30.356-29.57-38.14-48.388-16.958-40.995-12.171-87.196-16.803-130.679-2.312-21.708-5.884-43.107-15.041-62.91-9.406-20.34-23.465-39.42-44.335-55.128-50.121-37.725-113.428-61.71-157.889-106.552-27.766-28.005-41.805-61.864-23.334-93.76z" stroke="url(#F)" stroke-width="2.365" transform="rotate(-24 -98.317 1513.33)"/><path d="M151.888 382.887c7.839-13.646 20.877-28.461 41.553-25.42 133.603 19.655 254.386-24.368 352.502-86.635 67.645-43.275 124.825-93.135 202.755-127.287 37.614-16.482 89.952-3.294 102.11 29.241 16.04 42.82 16.076 83.914 24.468 126.872 7.191 36.813 30.647 79.221 82.03 96.38 34.079 11.38 72.13 16.494 107.853 26.502 37.953 10.631 77.836 21.957 107.148 46.913 23.85 20.306 34.099 47.665 36.73 74.763 9.443 74.665-55.696 181.966-160.514 163.998-40.444-6.783-77.812-8.512-112.637-6.028-175.748 12.469-270.995 130.398-394.898 209.407-2.457 1.567-8.455.617-15.96-.131-27.478 2.967-51.177-2.113-69.382-14.434-22.31-15.101-31.253-31.004-39.228-50.613-17.33-42.608-12.35-90.449-16.983-135.456-2.315-22.473-5.908-44.628-15.428-65.061-9.65-20.716-23.846-40.24-45.075-56.294-51.602-39.024-116.987-63.688-162.827-109.945-28.66-28.92-43.1-63.751-24.217-96.772z" stroke="url(#G)" stroke-width="2.423" transform="rotate(-24 -98.317 1513.33)"/><path d="M136.236 377.507c7.928-14.057 21.226-29.315 42.443-26.148C316.828 372.1 441.78 326.245 543.385 261.84c70.051-44.764 129.272-96.396 210.006-131.658 38.95-17.013 93.153-3.225 105.673 30.591 16.538 44.467 16.607 87.089 25.03 131.692 7.217 38.226 30.808 82.145 83.956 99.704 35.286 11.66 74.612 17.013 111.584 27.195 38.976 10.735 79.57 22.348 109.446 47.92 24.649 21.1 35.304 49.395 38.026 77.467 9.731 77.337-57.736 188.504-166.25 169.82-41.835-7.1-80.459-8.934-116.437-6.4-181.819 12.84-280.645 134.386-408.332 216.884-2.446 1.58-8.55.577-16.235-.246-28.383 3.033-52.88-2.244-71.66-15.114-23.017-15.773-32.148-32.514-40.314-52.967-17.7-44.332-12.526-93.938-17.163-140.584-2.316-23.296-5.93-46.266-15.813-67.38-9.895-21.143-24.224-41.162-45.811-57.602-53.077-40.427-120.54-65.831-167.758-113.622-29.551-29.91-44.51-65.869-25.097-100.033z" stroke="url(#H)" stroke-width="2.481" transform="rotate(-24 -98.317 1513.33)"/><path d="M122.822 371.986c8.063-14.402 21.547-30.145 43.26-26.814 142.495 21.482 271.353-25.794 376.27-92.177 72.333-46.142 133.491-99.417 216.886-135.702 40.218-17.499 96.191-3.146 109.053 31.867 17.006 46.004 17.107 90.048 25.545 136.182 7.233 39.546 30.915 84.865 85.735 102.783 36.433 11.908 76.963 17.488 115.12 27.818 39.934 10.81 81.163 22.683 111.552 48.81 25.402 21.841 36.448 51 39.253 79.976 10.002 79.815-59.673 194.57-171.693 175.219-43.154-7.405-82.965-9.334-120.033-6.757C766.2 726.368 664.015 851.306 532.72 937.01c-2.43 1.592-8.627.533-16.48-.36-29.24 3.091-54.49-2.37-73.814-15.756-23.684-16.407-32.985-33.946-41.327-55.192-18.042-45.943-12.681-97.191-17.314-145.361-2.314-24.061-5.94-47.788-16.17-69.532-10.121-21.518-24.559-41.978-46.466-58.766-54.456-41.732-123.883-67.809-172.394-117.015-30.392-30.824-45.697-67.742-25.934-103.043z" stroke="url(#I)" stroke-width="2.538" transform="rotate(-24 -98.317 1513.33)"/><path d="M109.229 367.106c8.175-14.742 21.856-30.872 44.074-27.447 146.772 22.632 279.602-26.444 387.825-94.724 74.617-47.465 137.707-102.32 223.763-139.583 41.485-17.963 99.226-3.065 112.43 33.103 17.472 47.485 17.606 92.9 26.06 140.51 7.249 40.82 31.022 87.48 87.51 105.734 37.58 12.144 79.314 17.947 118.655 28.41 40.89 10.875 82.756 22.992 113.657 49.641 26.153 22.556 37.59 52.543 40.48 82.39 10.275 82.196-61.608 200.402-177.132 180.405-44.472-7.697-85.47-9.722-123.626-7.105-193.317 13.5-299.052 141.392-433.754 230.485-2.418 1.598-8.708.49-16.73-.471-30.094 3.143-56.098-2.496-75.963-16.38-24.352-17.021-33.822-35.334-42.342-57.35-18.382-47.495-12.737-100.335-17.462-149.96-2.263-24.803-5.951-49.254-16.527-71.6-10.349-21.867-24.894-42.747-47.121-59.861-55.834-42.988-127.222-69.705-177.028-120.266-31.23-31.704-46.935-69.564-26.769-105.93z" stroke="url(#J)" stroke-width="2.596" transform="rotate(-24 -98.317 1513.33)"/><path d="M95.5 359.828c8.294-15.117 22.189-31.699 44.927-28.142 151.202 23.646 288.089-27.158 399.712-97.496 76.963-48.9 142.042-105.462 230.832-143.79 42.786-18.472 102.346-2.99 115.902 34.416 17.956 49.077 18.122 95.97 26.599 145.165 7.27 42.19 31.154 90.3 89.362 108.935 38.756 12.408 81.732 18.449 122.29 29.068 41.883 10.966 84.419 23.354 115.859 50.59 26.927 23.326 38.765 54.21 41.743 84.994 10.553 84.772-63.597 206.706-182.724 186.015-45.828-8.006-88.049-10.131-127.326-7.47-199.229 13.854-308.559 145.08-446.832 237.691-2.405 1.611-8.794.45-16.99-.584-30.975 3.204-57.755-2.625-78.18-17.042-25.04-17.674-34.687-36.804-43.393-59.64-18.738-49.158-12.916-103.705-17.626-154.914-2.27-25.594-5.966-50.834-16.898-73.835-10.585-22.268-25.25-43.614-47.818-61.095-57.255-44.346-130.67-71.765-181.812-123.799-32.095-32.657-48.212-71.55-27.628-109.067z" stroke="url(#K)" stroke-width="2.654" transform="rotate(-24 -98.317 1513.33)"/><path d="M80.551 355.29c8.414-15.492 22.522-32.525 45.781-28.839 155.63 24.669 296.575-27.87 411.6-100.265 79.308-50.333 146.377-108.603 237.9-147.998 44.089-18.979 105.466-2.914 119.374 35.73 18.438 50.668 18.637 99.041 27.137 149.822 7.291 43.56 31.287 93.12 91.214 112.134 39.934 12.672 84.15 18.954 125.925 29.726 42.879 11.057 86.082 23.717 118.06 51.537 27.7 24.097 39.94 55.876 43.008 87.6 10.833 87.348-65.587 213.009-188.316 191.626-47.184-8.318-90.627-10.543-131.026-7.836-205.141 14.208-318.102 148.725-459.91 244.898-2.393 1.622-8.88.406-17.25-.697-31.857 3.264-59.415-2.758-80.398-17.705-25.729-18.329-35.552-38.273-44.442-61.93-19.096-50.823-13.096-107.075-17.79-159.868-2.277-26.387-5.98-52.415-17.27-76.07-10.82-22.67-25.605-44.484-48.514-62.33-58.674-45.708-134.117-73.823-186.595-127.333-32.963-33.608-49.49-73.533-28.488-112.202z" stroke="url(#L)" stroke-width="2.712" transform="rotate(-24 -98.317 1513.33)"/><path d="M67.362 349.499c8.528-15.835 22.836-33.282 46.597-29.472 159.933 25.636 304.822-28.52 423.154-102.813 81.588-51.656 150.592-111.506 244.774-151.88 45.357-19.443 108.502-2.832 122.75 36.966 18.907 52.148 19.139 101.893 27.655 154.146 7.307 44.837 31.394 95.734 92.992 115.087 41.078 12.906 86.5 19.417 129.459 30.317 43.838 11.126 87.674 24.025 120.166 52.37 28.448 24.816 41.083 57.42 44.235 90.013 11.104 89.728-67.524 218.839-193.755 196.81-48.502-8.61-93.131-10.929-134.62-8.183-210.888 14.531-327.42 151.998-472.615 251.562-2.38 1.631-8.96.363-17.498-.81-32.71 3.32-61.042-2.855-82.547-18.327-26.422-18.908-36.39-39.656-45.457-64.085-19.438-52.37-13.265-110.206-17.94-164.465-2.282-27.122-5.988-53.88-17.627-78.136-11.048-23.02-25.94-45.255-49.171-63.427-60.045-46.97-137.457-75.721-191.229-130.585-33.8-34.487-50.723-75.356-29.323-115.088z" stroke="url(#M)" stroke-width="2.769" transform="rotate(-24 -98.317 1513.33)"/><path d="M53.703 341.808C62.338 325.6 76.835 307.7 101.08 311.64c164.105 26.666 312.826-29.231 434.371-105.583 83.806-53.09 154.688-114.646 251.454-156.086 46.587-19.951 111.36-2.727 126.03 38.28 19.241 53.783 19.623 104.966 28.149 158.802 7.317 46.21 31.477 98.555 94.696 118.288 42.192 13.17 88.781 19.923 132.89 30.975 44.765 11.216 89.198 24.385 122.18 53.316 29.172 25.59 42.193 59.087 45.426 92.62 11.367 92.304-69.404 225.142-199.039 202.421-49.781-8.92-95.561-11.34-138.105-8.549-216.467 14.885-336.515 155.558-484.946 258.768-2.365 1.645-9.033.322-17.73-.922-33.541 3.38-62.585-3.014-84.635-18.99-27.045-19.597-37.197-41.124-46.435-66.376-19.766-54.03-13.424-113.576-18.077-169.418-2.284-27.916-5.991-55.465-17.971-80.373-11.264-23.422-26.253-46.122-49.789-64.66-61.365-48.336-140.687-77.782-195.711-134.12-34.613-35.44-51.916-77.34-30.135-118.225z" stroke="url(#N)" stroke-width="2.827" transform="rotate(-24 -98.317 1513.33)"/><path d="M37.502 335.475c8.763-16.569 23.482-34.9 48.267-30.834 168.658 27.668 321.555-29.912 446.595-108.24C618.58 141.931 691.507 78.73 791.08 36.27c47.926-20.437 114.557-2.645 129.6 39.554 19.725 55.324 20.154 107.93 28.709 163.291 7.346 47.538 31.633 101.272 96.622 121.364 43.401 13.42 91.268 20.412 136.627 31.6 45.798 11.299 90.93 24.721 124.478 54.207 29.964 26.337 43.4 60.693 46.724 95.13 11.655 94.78-71.502 231.516-204.784 207.817-51.198-9.103-98.215-11.74-141.912-8.904-222.547 15.223-346.425 158.91-498.4 265.702-2.356 1.655-9.127.279-18.005-1.035-34.448 3.437-64.27-3.17-86.916-19.631-27.73-20.267-38.091-42.55-47.521-68.6-20.14-55.632-13.614-116.827-18.256-174.193-2.293-28.68-6.007-56.988-18.356-82.522-11.509-23.8-26.627-46.943-50.523-65.828C206.34 544.57 124.922 514.463 68.519 456.71c-35.505-36.355-53.228-79.243-31.017-121.235z" stroke="url(#O)" stroke-width="2.885" transform="rotate(-24 -98.317 1513.33)"/><path d="M23.834 331.005c8.891-16.91 23.831-35.656 49.156-31.468 173.212 28.645 330.285-30.563 458.82-110.79 88.628-55.79 163.598-120.57 265.98-164.009 49.265-20.904 117.753-2.561 133.172 40.785 20.207 56.81 20.684 110.785 29.268 167.615 7.374 48.816 31.789 103.885 98.546 124.317 44.611 13.653 93.755 20.879 140.366 32.193 46.83 11.367 92.66 25.03 126.773 55.043 30.753 27.055 44.607 62.235 48.022 97.54 11.943 97.162-73.556 237.407-210.532 213.001-52.596-9.37-100.866-12.126-145.719-9.25-228.628 15.545-356.373 162.06-511.853 272.364-2.347 1.665-9.22.237-18.28-1.146-35.355 3.49-65.998-3.266-89.198-20.253-28.469-20.847-38.984-43.93-48.607-70.75-20.515-57.179-13.803-119.958-18.434-178.79-2.3-29.414-6.023-58.455-18.74-84.589-11.754-24.154-27.002-47.715-51.257-66.927-64.287-50.92-147.801-81.656-205.583-140.764-36.399-37.233-54.538-81.064-31.9-124.122z" stroke="url(#P)" stroke-width="2.942" transform="rotate(-24 -98.317 1513.33)"/><path d="M392.241 1006.601c-29.036-21.599-39.24-45.585-49.577-73.026-19.674-59.224-13.96-123.299-18.568-183.703-2.304-30.2-7.176-59.492-19.081-86.805-13.005-24.015-27.856-47.905-51.869-68.146-67-50.456-149.672-85.028-210.03-144.266C6.77 411.658-13.51 367.14 10.409 323.425c8.639-17.465 24.181-36.804 49.93-32.157C238.054 318.67 398.568 260 530.293 177.734 621.12 120.522 697.619 53.24 802.906 9.554c50.32-21.794 120.79-2.524 136.425 42.091 20.804 58.335 22.893 113.606 29.759 172.233 8.862 49.943 31.922 106.503 100.236 127.49 45.75 13.793 96.02 21.385 143.771 32.842 47.751 11.459 92.985 26.781 128.766 55.977 30.345 29.053 45.71 63.889 49.206 100.126 12.204 99.714-75.358 243.286-215.777 218.564-53.84-9.823-103.279-12.535-149.18-9.615-234.166 15.897-360.76 172.384-524.092 279.51-2.258 1.776-9.292.195-18.51-1.26-36.178 3.55-67.487-3.48-91.269-20.911z" stroke="url(#Q)" stroke-width="3" transform="rotate(-24 -98.317 1513.33)"/></g></g></svg>