<svg width="247" height="183" xmlns="http://www.w3.org/2000/svg" xmlns:xlink="http://www.w3.org/1999/xlink"><defs><linearGradient x1="50%" y1="0%" x2="50%" y2="100%" id="c"><stop stop-color="#FFBB58" offset="0%"/><stop stop-color="#FFF" stop-opacity="0" offset="100%"/></linearGradient><linearGradient x1="50%" y1="0%" x2="50%" y2="100%" id="d"><stop stop-color="#FFBB58" offset="0%"/><stop stop-color="#FFF" stop-opacity="0" offset="100%"/></linearGradient><linearGradient x1="63.969%" y1="48.969%" x2="100%" y2="50%" id="e"><stop stop-color="#FFD290" offset="0%"/><stop stop-color="#FFF" stop-opacity="0" offset="100%"/></linearGradient><linearGradient x1="40.024%" y1="50%" x2="78.096%" y2="89.702%" id="f"><stop stop-color="#FFDFB1" offset="0%"/><stop stop-color="#FA9A0F" offset="100%"/></linearGradient><path id="a" d="M0 0h300v200H0z"/></defs><g transform="translate(-26 -9)" fill="none" fill-rule="evenodd"><mask id="b" fill="#fff"><use xlink:href="#a"/></mask><g mask="url(#b)"><g transform="translate(26 9)"><path d="M136.15 158.044L120 148" fill="#D8D8D8"/><ellipse fill="#FFF4E4" cx="124" cy="136.5" rx="119" ry="46.5"/><path d="M4.065 51.02a8 8 0 0114.5-5.593A6.178 6.178 0 0122.5 44c3.59 0 6.5 3.134 6.5 7 0 .085-.001.17-.004.255A4.502 4.502 0 0127.5 60h-23a4.5 4.5 0 01-.435-8.98z" fill="url(#c)"/><path d="M167.019 10a6.5 6.5 0 0112.018-3.907 5.002 5.002 0 015.868 3.93A3.5 3.5 0 01184.5 17h-18a3.5 3.5 0 110-7h.519z" fill="url(#d)"/><path d="M135.071 148.224c50.752 13.255 112.633 2.157 112.633-5.156s-41.809-30.15-94.276-30.15-79.04 8.712-79.04 16.026c0 7.313 9.932 6.024 60.683 19.28z" fill="url(#e)" transform="rotate(-4 161.047 133.661)"/><path d="M14.8 129.333v7.267h-1.6v-7.205c-.98.022-1.895.005-2.568.005-2.558 0-4.632-2.149-4.632-4.8 0-1.324.517-2.523 1.354-3.392a3.447 3.447 0 01-.512-1.808c0-1.853 1.474-3.38 3.37-3.578.046-1.985 1.707-4.822 3.367-4.822s3.32 2.837 3.367 4.822c1.896.198 3.37 1.725 3.37 3.578 0 .457-.09.894-.253 1.296A4.849 4.849 0 0122 124.6c0 2.651-2.074 4.8-4.632 4.8-.737 0-1.682.028-2.568-.067z" fill="#FFD699"/><path d="M199 164.916V174h-2v-9.007c-1.226.029-2.368.007-3.21.007-3.198 0-5.79-2.686-5.79-6 0-1.655.647-3.154 1.693-4.24a4.31 4.31 0 01-.64-2.26c0-2.317 1.842-4.224 4.211-4.473.059-2.481 2.134-6.027 4.21-6.027 2.075 0 4.15 3.546 4.209 6.027 2.369.249 4.212 2.156 4.212 4.473 0 .57-.112 1.117-.316 1.62 1.466 1.088 2.421 2.868 2.421 4.88 0 3.314-2.592 6-5.79 6-.92 0-2.102.035-3.21-.084z" fill="#FFC979"/><path d="M202.15 101.896v5.904h-1.3v-5.854c-.797.018-1.54.004-2.087.004-2.078 0-3.763-1.746-3.763-3.9 0-1.076.42-2.05 1.1-2.756a2.801 2.801 0 01-.416-1.469c0-1.506 1.198-2.746 2.738-2.907.038-1.613 1.387-3.918 2.736-3.918 1.349 0 2.698 2.305 2.736 3.918 1.54.161 2.738 1.401 2.738 2.907 0 .371-.073.726-.206 1.053A3.94 3.94 0 01208 98.05c0 2.154-1.685 3.9-3.763 3.9-.6 0-1.367.023-2.087-.054z" fill="#FFD597" opacity=".675"/><path d="M45.006 0C42.25 0 39.696 1.399 38 3.7 36.322 1.398 33.75 0 30.994 0 26.032 0 22 4.454 22 9.92c0 3.258 1.441 5.559 2.609 7.399 3.375 5.356 11.877 12 12.242 12.276a1.828 1.828 0 002.298 0c.365-.276 8.849-6.939 12.242-12.276C52.56 15.479 54 13.178 54 9.92 54 4.454 49.968 0 45.006 0z" fill="#FFBB58" fill-rule="nonzero"/><path d="M93.802 116c-1.324 0-2.85-.443-4.174-1.088l-28.585-14.145-28.829 14.145c-2.85 1.531-6.596 1.31-9.243-.645-2.646-1.954-4.173-5.44-3.522-8.704l5.945-30.466-22.64-20.895C.332 51.804-.544 48.097.332 45.054c1.099-3.264 3.746-5.662 7.248-6.085l31.455-5.662 14.089-28.31C54.67 1.954 57.745 0 61.044 0c3.298 0 6.596 1.954 7.92 4.997l14.068 28.29 31.455 5.44c3.298.443 6.148 2.821 7.044 6.085 1.1 3.264.224 6.75-2.199 9.148l-22.68 21.137 5.721 30.466c.652 3.485-.875 6.75-3.522 8.704-1.303 1.088-3.074 1.733-5.05 1.733z" fill="url(#f)" fill-rule="nonzero" transform="translate(54 21)"/></g></g></g></svg>