<svg width="254" height="180" xmlns="http://www.w3.org/2000/svg" xmlns:xlink="http://www.w3.org/1999/xlink"><defs><linearGradient x1="50%" y1="0%" x2="50%" y2="100%" id="c"><stop stop-color="#FFBB58" offset="0%"/><stop stop-color="#FFF" stop-opacity="0" offset="100%"/></linearGradient><linearGradient x1="50%" y1="0%" x2="50%" y2="100%" id="d"><stop stop-color="#FFBB58" offset="0%"/><stop stop-color="#FFF" stop-opacity="0" offset="100%"/></linearGradient><linearGradient x1="32.421%" y1="45.552%" x2="100%" y2="52.597%" id="e"><stop stop-color="#FFD290" offset="0%"/><stop stop-color="#FFF" stop-opacity="0" offset="100%"/></linearGradient><linearGradient x1="37.476%" y1="32.599%" x2="83.086%" y2="72.517%" id="f"><stop stop-color="#FFDFB1" offset="0%"/><stop stop-color="#FA9A0F" offset="100%"/></linearGradient><path id="a" d="M0 0h300v200H0z"/></defs><g transform="translate(-23 -10)" fill="none" fill-rule="evenodd"><mask id="b" fill="#fff"><use xlink:href="#a"/></mask><g mask="url(#b)"><g transform="translate(23 10)"><path d="M147.15 155.044L131 145" fill="#D8D8D8"/><ellipse fill="#FFF4E4" cx="135" cy="133.5" rx="119" ry="46.5"/><path d="M4.065 49.02a8 8 0 0114.5-5.593A6.178 6.178 0 0122.5 42c3.59 0 6.5 3.134 6.5 7 0 .085-.001.17-.004.255A4.502 4.502 0 0127.5 58h-23a4.5 4.5 0 01-.435-8.98z" fill="url(#c)"/><path d="M178.019 7a6.5 6.5 0 0112.018-3.907 5.002 5.002 0 015.868 3.93A3.5 3.5 0 01195.5 14h-18a3.5 3.5 0 110-7h.519z" fill="url(#d)"/><path fill="url(#e)" transform="rotate(-4 186.739 129.452)" d="M247.95 124.257l-80.236-17.64-42.188 29.128 100.353 16.541z"/><path d="M177 125.524h-31.14a4.904 4.904 0 00-3.202 1.193l-11.657 10.128a6 6 0 01-7.5.297l-14.418-10.65a4.974 4.974 0 00-2.897-.946H78a6 6 0 01-6-6V55a6 6 0 016-6h99a6 6 0 016 6v64.524a6 6 0 01-6 6z" fill="url(#f)"/><g fill="#FFF" fill-rule="nonzero"><path d="M161.883 72.87a5.394 5.394 0 01-1.327 3.606 4.624 4.624 0 01-3.463 1.609H98.162c-2.706-.276-4.762-2.525-4.762-5.21 0-2.683 2.056-4.933 4.762-5.209h58.93c2.777.138 4.918 2.464 4.79 5.204zM161.883 102.163c.127 2.742-2.012 5.071-4.79 5.215H98.162c-2.706-.276-4.762-2.526-4.762-5.21s2.056-4.933 4.762-5.209h58.93c2.774.144 4.912 2.466 4.79 5.204z"/></g><path d="M25.8 126.333v7.267h-1.6v-7.205c-.98.022-1.895.005-2.568.005-2.558 0-4.632-2.149-4.632-4.8 0-1.324.517-2.523 1.354-3.392a3.447 3.447 0 01-.512-1.808c0-1.853 1.474-3.38 3.37-3.578.046-1.985 1.707-4.822 3.367-4.822s3.32 2.837 3.367 4.822c1.896.198 3.37 1.725 3.37 3.578 0 .457-.09.894-.253 1.296A4.849 4.849 0 0133 121.6c0 2.651-2.074 4.8-4.632 4.8-.737 0-1.682.028-2.568-.067z" fill="#FFD699"/><path d="M210 161.916V171h-2v-9.007c-1.226.029-2.368.007-3.21.007-3.198 0-5.79-2.686-5.79-6 0-1.655.647-3.154 1.693-4.24a4.31 4.31 0 01-.64-2.26c0-2.317 1.842-4.224 4.211-4.473.059-2.481 2.134-6.027 4.21-6.027 2.075 0 4.15 3.546 4.209 6.027 2.369.249 4.212 2.156 4.212 4.473 0 .57-.112 1.117-.316 1.62 1.466 1.088 2.421 2.868 2.421 4.88 0 3.314-2.592 6-5.79 6-.92 0-2.102.035-3.21-.084z" fill="#FFC979"/><path d="M213.15 98.896v5.904h-1.3v-5.854c-.797.018-1.54.004-2.087.004-2.078 0-3.763-1.746-3.763-3.9 0-1.076.42-2.05 1.1-2.756a2.801 2.801 0 01-.416-1.469c0-1.506 1.198-2.746 2.738-2.907.038-1.613 1.387-3.918 2.736-3.918 1.349 0 2.698 2.305 2.736 3.918 1.54.161 2.738 1.401 2.738 2.907 0 .371-.073.726-.206 1.053A3.94 3.94 0 01219 95.05c0 2.154-1.685 3.9-3.763 3.9-.6 0-1.367.023-2.087-.054z" fill="#FFD597" opacity=".675"/><path d="M67.373 17.619l-2.176 2.104-7.247-7.013 2.177-2.101c.798-.775 2.057-.816 2.805-.09l4.53 4.382c.751.726.71 1.943-.089 2.718zm-19.22 18.6l-7.246-7.013L56.849 13.78l7.247 7.013L48.154 36.22zm-1.009.977L37 40l2.898-9.817 7.246 7.013z" fill="#FFBB58" fill-rule="nonzero"/><rect fill="#FFBB58" x="50" y="37" width="15" height="2" rx="1"/><rect fill="#FFBB58" x="44" y="42" width="21" height="2" rx="1"/></g></g></g></svg>