<svg width="270" height="180" xmlns="http://www.w3.org/2000/svg" xmlns:xlink="http://www.w3.org/1999/xlink"><defs><linearGradient x1="50%" y1="0%" x2="50%" y2="100%" id="c"><stop stop-color="#FFBB58" offset="0%"/><stop stop-color="#FFF" stop-opacity="0" offset="100%"/></linearGradient><linearGradient x1="50%" y1="0%" x2="50%" y2="100%" id="d"><stop stop-color="#FFBB58" offset="0%"/><stop stop-color="#FFF" stop-opacity="0" offset="100%"/></linearGradient><linearGradient x1="63.969%" y1="48.864%" x2="100%" y2="50%" id="e"><stop stop-color="#FFD290" offset="0%"/><stop stop-color="#FFF" stop-opacity="0" offset="100%"/></linearGradient><linearGradient x1="58.943%" y1="58.697%" x2="7.126%" y2="38.227%" id="f"><stop stop-color="#FFDFB1" offset="0%"/><stop stop-color="#FA9A0F" offset="100%"/></linearGradient><rect id="a" x="0" y="0" width="300" height="200" rx="7"/></defs><g transform="translate(-15 -10)" fill="none" fill-rule="evenodd"><mask id="b" fill="#fff"><use xlink:href="#a"/></mask><g mask="url(#b)"><g transform="translate(15 10)"><path d="M163.15 155.044L147 145" fill="#D8D8D8"/><ellipse fill="#FFF4E4" cx="151" cy="133.5" rx="119" ry="46.5"/><path d="M4.065 54.02a8 8 0 0114.5-5.593A6.178 6.178 0 0122.5 47c3.59 0 6.5 3.134 6.5 7 0 .085-.001.17-.004.255A4.502 4.502 0 0127.5 63h-23a4.5 4.5 0 01-.435-8.98z" fill="url(#c)"/><path d="M194.019 7a6.5 6.5 0 0112.018-3.907 5.002 5.002 0 015.868 3.93A3.5 3.5 0 01211.5 14h-18a3.5 3.5 0 110-7h.519z" fill="url(#d)"/><path d="M162.046 149.587c56.38 12.459 107.02 8.594 107.02 1.281s-35.952-40.082-88.419-40.082S82.4 117.929 82.4 125.242s23.265 11.885 79.646 24.345z" fill="url(#e)" transform="rotate(-4 175.733 134.23)"/><path d="M41.8 126.333v7.267h-1.6v-7.205c-.98.022-1.895.005-2.568.005-2.558 0-4.632-2.149-4.632-4.8 0-1.324.517-2.523 1.354-3.392a3.447 3.447 0 01-.512-1.808c0-1.853 1.474-3.38 3.37-3.578.046-1.985 1.707-4.822 3.367-4.822s3.32 2.837 3.367 4.822c1.896.198 3.37 1.725 3.37 3.578 0 .457-.09.894-.253 1.296A4.849 4.849 0 0149 121.6c0 2.651-2.074 4.8-4.632 4.8-.737 0-1.682.028-2.568-.067z" fill="#FFD699"/><path d="M226 161.916V171h-2v-9.007c-1.226.029-2.368.007-3.21.007-3.198 0-5.79-2.686-5.79-6 0-1.655.647-3.154 1.693-4.24a4.31 4.31 0 01-.64-2.26c0-2.317 1.842-4.224 4.211-4.473.059-2.481 2.134-6.027 4.21-6.027 2.075 0 4.15 3.546 4.209 6.027 2.369.249 4.212 2.156 4.212 4.473 0 .57-.112 1.117-.316 1.62 1.466 1.088 2.421 2.868 2.421 4.88 0 3.314-2.592 6-5.79 6-.92 0-2.102.035-3.21-.084z" fill="#FFC979"/><path d="M229.15 98.896v5.904h-1.3v-5.854c-.797.018-1.54.004-2.087.004-2.078 0-3.763-1.746-3.763-3.9 0-1.076.42-2.05 1.1-2.756a2.801 2.801 0 01-.416-1.469c0-1.506 1.198-2.746 2.738-2.907.038-1.613 1.387-3.918 2.736-3.918 1.349 0 2.698 2.305 2.736 3.918 1.54.161 2.738 1.401 2.738 2.907 0 .371-.073.726-.206 1.053A3.94 3.94 0 01235 95.05c0 2.154-1.685 3.9-3.763 3.9-.6 0-1.367.023-2.087-.054z" fill="#FFD597" opacity=".675"/><path d="M52.3 52.773l-1.12-1.786-.755 10.276c-.003.41.453.867.849.869h4.247l-.8-1.602-2.422-7.757zm2.34-1.597l-2.093-1.827 4.333 13.042a.948.948 0 001.257.531l5.612-2.044-1.036-1.178-8.073-8.524zm26.013-4.246L64.293 30H51.7C50.76 30 50 30.778 50 31.737l.031 12.925s.19.308.313.436L66.385 61.67a1.16 1.16 0 001.679 0l12.588-13.005a1.257 1.257 0 000-1.735zm-23.856-7.812c-1.64 0-2.971-1.264-2.971-2.823 0-1.56 1.33-2.824 2.971-2.824 1.642 0 2.972 1.265 2.972 2.824 0 1.56-1.33 2.823-2.972 2.823z" fill="#FFBB58" fill-rule="nonzero"/><path d="M204.518 109.928c-7.333-2.599-9.506-4.668-9.506-8.808 0-3.898 2.173-5.968 9.506-8.808 4.007-1.829 4.414-3.369 4.414-5.968V71.567c0-4.668-5.5-8.567-12.087-8.567H93.087C86.5 63 81 66.899 81 71.567v14.777c0 2.31.34 4.428 4.414 5.968 2.92 1.06 9.506 3.61 9.506 8.808 0 5.68-4.753 7.509-9.167 8.568h-.34c-4.006 1.829-4.413 4.669-4.413 5.968v14.777C81 135.1 86.5 139 93.087 139h103.826c6.587 0 12.087-3.899 12.087-8.567v-14.777c-.068-2.888-1.562-3.947-4.482-5.728z" fill="url(#f)" fill-rule="nonzero" transform="rotate(-180 145 101)"/><path d="M164.346 108.464c0 1.725-1.47 3.18-3.213 3.18h-12.31v12.177c0 1.724-1.471 3.179-3.214 3.179-1.743 0-3.214-1.455-3.214-3.18v-12.177h-12.31c-1.743 0-3.213-1.454-3.213-3.179 0-1.724 1.47-3.179 3.213-3.179h12.31v-7.543h-13.181c-1.743 0-3.214-1.455-3.214-3.18 0-1.724 1.47-3.178 3.214-3.178h9.695l-10.186-10.13c-1.198-1.186-1.198-3.18 0-4.365 1.199-1.185 3.214-1.185 4.412 0l12.528 12.447 12.583-12.447c1.198-1.185 3.213-1.185 4.412 0 1.198 1.185 1.198 3.18 0 4.365l-10.24 10.13h9.368c1.743 0 3.214 1.454 3.214 3.179 0 1.724-1.47 3.179-3.214 3.179h-13.181v7.543h12.528c1.743 0 3.213 1.455 3.213 3.18z" fill="#FFF" fill-rule="nonzero"/></g></g></g></svg>