<svg width="270" height="178" xmlns="http://www.w3.org/2000/svg" xmlns:xlink="http://www.w3.org/1999/xlink"><defs><linearGradient x1="50%" y1="0%" x2="50%" y2="100%" id="c"><stop stop-color="#FFBB58" offset="0%"/><stop stop-color="#FFF" stop-opacity="0" offset="100%"/></linearGradient><linearGradient x1="50%" y1="0%" x2="50%" y2="100%" id="d"><stop stop-color="#FFBB58" offset="0%"/><stop stop-color="#FFF" stop-opacity="0" offset="100%"/></linearGradient><linearGradient x1="46.989%" y1="49.376%" x2="100%" y2="50%" id="e"><stop stop-color="#FFD290" offset="0%"/><stop stop-color="#FFF" stop-opacity="0" offset="100%"/></linearGradient><path id="a" d="M0 0h300v200H0z"/></defs><g transform="translate(-15 -11)" fill="none" fill-rule="evenodd"><mask id="b" fill="#fff"><use xlink:href="#a"/></mask><g mask="url(#b)"><g transform="translate(15 11)"><path d="M163.15 153.044L147 143" fill="#D8D8D8"/><ellipse fill="#FFF4E4" cx="151" cy="131.5" rx="119" ry="46.5"/><path d="M4.065 60.02a8 8 0 0114.5-5.593A6.178 6.178 0 0122.5 53c3.59 0 6.5 3.134 6.5 7 0 .085-.001.17-.004.255A4.502 4.502 0 0127.5 69h-23a4.5 4.5 0 01-.435-8.98z" fill="url(#c)"/><path d="M197.019 17a6.5 6.5 0 0112.018-3.907 5.002 5.002 0 015.868 3.93A3.5 3.5 0 01214.5 24h-18a3.5 3.5 0 110-7h.519z" fill="url(#d)"/><path d="M192.44 155.22c64.935 3.853 75.23-7.498 75.23-13.704 0-6.207-36.324-29.516-88.79-29.516-52.468 0-57.88 14.943-57.88 21.15 0 6.206 6.507 18.216 71.44 22.07z" fill="url(#e)" transform="rotate(-7 194.335 134)"/><path d="M41.8 124.333v7.267h-1.6v-7.205c-.98.022-1.895.005-2.568.005-2.558 0-4.632-2.149-4.632-4.8 0-1.324.517-2.523 1.354-3.392a3.447 3.447 0 01-.512-1.808c0-1.853 1.474-3.38 3.37-3.578.046-1.985 1.707-4.822 3.367-4.822s3.32 2.837 3.367 4.822c1.896.198 3.37 1.725 3.37 3.578 0 .457-.09.894-.253 1.296A4.849 4.849 0 0149 119.6c0 2.651-2.074 4.8-4.632 4.8-.737 0-1.682.028-2.568-.067z" fill="#FFD699"/><path d="M226 159.916V169h-2v-9.007c-1.226.029-2.368.007-3.21.007-3.198 0-5.79-2.686-5.79-6 0-1.655.647-3.154 1.693-4.24a4.31 4.31 0 01-.64-2.26c0-2.317 1.842-4.224 4.211-4.473.059-2.481 2.134-6.027 4.21-6.027 2.075 0 4.15 3.546 4.209 6.027 2.369.249 4.212 2.156 4.212 4.473 0 .57-.112 1.117-.316 1.62 1.466 1.088 2.421 2.868 2.421 4.88 0 3.314-2.592 6-5.79 6-.92 0-2.102.035-3.21-.084z" fill="#FFC979"/><path d="M229.15 96.896v5.904h-1.3v-5.854c-.797.018-1.54.004-2.087.004-2.078 0-3.763-1.746-3.763-3.9 0-1.076.42-2.05 1.1-2.756a2.801 2.801 0 01-.416-1.469c0-1.506 1.198-2.746 2.738-2.907.038-1.613 1.387-3.918 2.736-3.918 1.349 0 2.698 2.305 2.736 3.918 1.54.161 2.738 1.401 2.738 2.907 0 .371-.073.726-.206 1.053A3.94 3.94 0 01235 93.05c0 2.154-1.685 3.9-3.763 3.9-.6 0-1.367.023-2.087-.054z" fill="#FFD597" opacity=".675"/><path fill="#FFF" fill-rule="nonzero" d="M70.385 5.325V7.23h3.697v.913h-3.697v1.913h3.697V12h1.844v-1.944h3.689V8.143h-3.69V7.23h3.69V5.325h-3.462L80 1.35 78.692 0l-3.688 3.818L71.308 0 70 1.35l3.847 3.975z"/><path d="M99 48.098c0 7.786 6.375 14.097 14.24 14.097 7.863 0 14.238-6.311 14.238-14.097S121.103 34 113.24 34C105.375 34 99 40.312 99 48.098zm34.381-5.468c0 4.665 3.82 8.447 8.532 8.447 4.713 0 8.533-3.782 8.533-8.447 0-4.665-3.82-8.447-8.533-8.447-4.712 0-8.532 3.782-8.532 8.447zm24.003 4.95c0 4.665 3.82 8.447 8.532 8.447 4.713 0 8.533-3.782 8.533-8.447 0-4.665-3.82-8.447-8.533-8.447-4.712 0-8.532 3.782-8.532 8.447zm21.552 11.89c0 4.664 3.82 8.446 8.532 8.446S196 64.134 196 59.47c0-4.665-3.82-8.447-8.532-8.447s-8.532 3.782-8.532 8.447zm-45.712 2.826s-10.774-.516-17.897 6.474c-7.123 6.99-7.241 12.92-3.435 19.056 3.806 6.136 12.035 5.784 11.432 19.817-.602 14.034-6.365 14.144-7.23 22.49-.864 8.348 1.124 19.629 20.33 22.51 19.205 2.88 38.276-12.2 42.512-25.796 4.236-13.596 10.028-25.094 9.34-37.021-.804-13.903-7.58-27.378-24.446-27.454-16.867-.076-30.606-.076-30.606-.076zM65 44c-8.836 0-16-7.164-16-16s7.164-16 16-16 16 7.164 16 16-7.164 16-16 16zm1.333-15.215V21.33c0-.725-.597-1.329-1.333-1.329-.741 0-1.333.595-1.333 1.33v8.007c-.003.35.135.686.381.934l3.79 3.789a1.324 1.324 0 001.875-.01 1.333 1.333 0 00.01-1.875l-3.39-3.39z" fill="#FFBB58" fill-rule="nonzero"/></g></g></g></svg>