<svg class="icon" viewBox="0 0 1117 1024" xmlns="http://www.w3.org/2000/svg" width="34.906" height="32"><defs><style/></defs><path d="M1112.036 389.213c0-9.267 0-9.267-125.104-333.611C973.032 23.167 940.597 0 908.162 0H203.874c-32.434 0-69.502 23.167-78.769 55.602C0 375.312 0 379.946 0 389.212c0 60.236 27.8 115.838 74.136 152.906v379.945c0 55.602 46.335 101.937 101.936 101.937h759.892c55.602 0 101.936-46.335 101.936-101.937V542.118c46.335-37.068 74.136-88.037 74.136-152.905zm-139.004 532.85c0 18.534-13.9 32.435-32.435 32.435H180.706c-18.534 0-32.435-13.9-32.435-32.435V583.82c23.168 9.267 46.335 13.9 69.503 13.9 106.57 0 176.072-74.135 171.439-74.135 4.633 4.633 69.502 74.135 176.072 74.135 101.937 0 171.439-69.502 166.805-74.135 4.634 4.633 69.503 74.135 176.073 74.135 23.167 0 46.335-4.633 69.502-13.9v338.244zm-69.503-393.846c-74.135 0-125.104-50.968-125.104-50.968-13.9-13.9-32.434-23.168-50.968-23.168-18.534 0-37.068 9.267-50.968 23.168 0 0-50.969 50.968-120.47 50.968-74.137 0-120.471-50.968-120.471-50.968-23.168-27.801-74.136-27.801-97.304 0 0 0-50.968 50.968-125.104 50.968S74.136 467.982 74.136 393.847c9.267-32.435 74.135-199.24 120.47-315.078 0-4.633 9.267-9.267 13.9-9.267h704.29c4.634 0 13.9 4.634 13.9 9.267 41.702 111.204 106.571 282.643 120.471 315.077-9.267 74.136-69.502 134.371-143.638 134.371z" fill="#2c2e36"/></svg>