<svg class="icon" viewBox="0 0 1024 1024" xmlns="http://www.w3.org/2000/svg" width="48" height="48"><defs><style/></defs><path d="M187.616 526.051c-26.858 0-50.695-4.72-70.985-14.052h-.3l-6.68-3.418c-54.352-29.157-88.003-85.584-88.048-147.378 0-18.357 3.037-36.658 9.025-54.413l1.291-4.494 96.575-230.234c9.095-26.567 33.21-42.462 65.685-42.462h639.083c36.647 2.13 59.351 17.345 68.933 45.272l91.78 232.33c5.713 16.77 8.733 34.942 8.733 53.203.134 60.954-32.895 117.109-86.164 146.515-21.95 12.138-48.647 18.403-79.323 18.592-57.924 0-110.665-29.738-141.206-79.53l-1.405-2.514c-1.452-3.188-3.043-6.652-5.712-9.616-2.467-2.787-6.31-5.886-14.922-5.886-6.566 0-12.071 2.55-14.096 5.057-3.385 3.87-4.953 7.13-6.451 10.271l-1.474 2.721c-30.308 49.458-82.338 79.218-139.227 79.583-57.717-.3-110.066-30.112-140.445-79.766l-1.45-2.686c-1.152-2.393-2.88-5.918-4.606-7.889-2.855-3.394-8.59-6.163-16.286-6.163-7.185 0-12.182 2.469-13.285 3.78-3.78 4.21-5.46 7.943-6.587 10.42l-1.569 3.077c-30.86 49.9-83.419 79.506-140.884 79.68m-59.769-50.544l1.588.783c15.847 7.98 35.402 12.032 58.11 12.032 44.292-.152 84.894-23.065 108.55-61.309 1.27-2.983 4.813-10.837 11.746-18.496 8.843-10.651 24.64-17.144 42.1-17.144 18.04 0 34.732 7.117 44.684 19.058 5.018 5.657 8.197 12.227 10.11 16.155 23.24 37.983 63.661 61.056 107.834 61.289 43.668-.3 83.765-23.306 107.192-61.575 1.61-3.443 4.949-10.41 10.982-17.265 9.447-11.674 25.683-18.79 43.234-18.79 17.456 0 32.357 6.393 43.092 18.484 6.421 7.162 9.898 14.736 11.562 18.387 23.17 37.658 63.887 60.667 108.48 60.667 24.183-.157 44.796-4.825 61.196-13.889 41.226-22.756 66.766-66.23 66.672-113.457 0-14.16-2.345-28.256-6.998-41.916-.623-2.21-1.016-3.66-1.292-4.94L866.818 87.964c-5.477-15.916-17.662-19.67-34.34-20.65l-638.3.015c-24.185 0-28.743 13.205-30.471 18.183l-96.34 229.832a46.73 46.73 0 01-.856 3.074c-4.812 14.293-7.182 28.538-7.182 42.77.043 47.863 26.072 91.548 67.919 114.008l.6.31z" fill="#2c2e36"/><path d="M791.643 304.807H232.69c-10.413 0-18.862-8.442-18.862-18.867 0-10.42 8.448-18.86 18.862-18.86h558.953c10.413 0 18.863 8.44 18.863 18.86 0 10.427-8.45 18.867-18.863 18.867M833.492 994.4H190.84c-42.91 0-77.826-34.904-77.826-77.826v-340.82c0-10.421 8.45-18.864 18.864-18.864 10.41 0 18.86 8.443 18.86 18.864v340.821c0 22.113 17.992 40.1 40.102 40.1h642.65c22.111 0 40.098-17.986 40.098-40.1V575.754c0-10.421 8.455-18.864 18.867-18.864 10.407 0 18.862 8.443 18.862 18.864v340.821c0 42.92-34.92 77.825-77.826 77.825" fill="#2c2e36"/></svg>